<svg width="22" height="15" viewBox="0 0 22 15" fill="none" xmlns="http://www.w3.org/2000/svg">
<g clip-path="url(#clip0_0_868)">
<path d="M0.0572202 4.25299C1.72606 5.194 3.36386 6.11737 5.00166 7.04075C6.68946 7.99298 8.38588 8.93078 10.0599 9.90224C10.7064 10.2758 11.2805 10.2838 11.9339 9.91186C15.1043 8.10359 18.2886 6.31776 21.4693 4.52552C21.6245 4.43895 21.7831 4.3588 22.0003 4.24658C22.0003 4.43254 22.0003 4.55918 22.0003 4.68743C22.0003 7.05517 22.0021 9.42292 22.0003 11.7891C21.9986 13.748 20.6591 14.9952 18.5299 14.9984C13.8906 15.0048 9.25133 15.0016 4.61204 15C4.05346 15 3.49316 15.0113 2.93803 14.968C1.32436 14.8445 0.0417042 13.6262 0.0192921 12.1161C-0.0169119 9.53674 0.00894811 6.95578 0.00894811 4.37643C0.00894811 4.35239 0.0279122 4.32994 0.0572202 4.25299Z" fill="#A6A6A6"/>
<path d="M11.0178 0.00160925C13.5521 0.00160925 16.0846 -0.00319998 18.6189 0.00321233C20.1309 0.00802156 21.3066 0.750246 21.7963 1.96378C21.9049 2.23149 21.8652 2.37256 21.5825 2.53127C18.1534 4.45496 14.733 6.38827 11.3178 8.3328C11.0661 8.47708 10.9006 8.45143 10.6678 8.31837C7.26636 6.38667 3.85801 4.45816 0.441036 2.54249C0.144507 2.37577 0.106579 2.22668 0.223811 1.94294C0.732392 0.7262 1.88747 0.00802156 3.41839 0.00321233C5.95095 -0.00319998 8.48523 0.00160925 11.0178 0.00160925Z" fill="#A6A6A6"/>
</g>
<defs>
<clipPath id="clip0_0_868">
<rect width="22" height="15" fill="white"/>
</clipPath>
</defs>
</svg>
