<svg width="124" height="124" viewBox="0 0 124 124" fill="none" xmlns="http://www.w3.org/2000/svg">
<circle cx="62" cy="62" r="60" stroke="#DADADA" stroke-width="4"/>
<g clip-path="url(#clip0_0_859)">
<path d="M37.1265 54.64C40.8434 56.773 44.4913 58.8659 48.1391 60.9589C51.8983 63.1173 55.6767 65.243 59.4051 67.445C60.8451 68.2916 62.1237 68.3098 63.579 67.4668C70.6405 63.368 77.7326 59.3202 84.8171 55.2577C85.1627 55.0615 85.5159 54.8798 85.9998 54.6255C85.9998 55.047 85.9998 55.334 85.9998 55.6247C85.9998 60.9916 86.0036 66.3585 85.9998 71.7218C85.9959 76.1621 83.0124 78.9891 78.2702 78.9963C67.9372 79.0109 57.6043 79.0036 47.2713 79C46.0272 79 44.7792 79.0254 43.5428 78.9273C39.9487 78.6475 37.0919 75.8859 37.042 72.463C36.9614 66.6165 37.019 60.7663 37.019 54.9198C37.019 54.8653 37.0612 54.8144 37.1265 54.64Z" fill="#A6A6A6"/>
<path d="M61.5399 45.0037C67.1844 45.0037 72.8251 44.9928 78.4697 45.0073C81.8372 45.0182 84.456 46.7006 85.5465 49.4513C85.7884 50.0581 85.7001 50.3778 85.0703 50.7376C77.4329 55.0979 69.8147 59.4801 62.208 63.8877C61.6474 64.2147 61.2788 64.1566 60.7604 63.855C53.1844 59.4765 45.5931 55.1052 37.9826 50.763C37.3221 50.3851 37.2376 50.0472 37.4988 49.404C38.6315 46.6461 41.2042 45.0182 44.6139 45.0073C50.2547 44.9928 55.8992 45.0037 61.5399 45.0037Z" fill="#A6A6A6"/>
</g>
<defs>
<clipPath id="clip0_0_859">
<rect width="49" height="34" fill="white" transform="translate(37 45)"/>
</clipPath>
</defs>
</svg>
