<svg width="40" height="40" viewBox="0 0 40 40" fill="none" xmlns="http://www.w3.org/2000/svg">
<circle cx="20" cy="20" r="20" fill="#333333"/>
<path fill-rule="evenodd" clip-rule="evenodd" d="M12.2531 16.0601C12.2768 15.8279 12.1874 15.5988 12.0132 15.4429L10.2399 13.3173V13H15.7483L20.0059 22.2859L23.7489 13H29V13.3173L27.4832 14.7635C27.3525 14.8627 27.2876 15.0257 27.3145 15.1871V25.8137C27.2876 25.9743 27.3525 26.1373 27.4832 26.2365L28.9644 27.6827V28H21.5132V27.6827L23.0483 26.2011C23.1987 26.0515 23.1987 26.0074 23.1987 25.7783V17.1891L18.9324 27.9654H18.356L13.3883 17.1891V24.4116C13.3472 24.7147 13.4485 25.0209 13.663 25.2398L15.6588 27.6473V27.9654H10V27.6473L11.9958 25.2398C12.2095 25.0202 12.3045 24.7123 12.2531 24.4116V16.0601Z" fill="white"/>
</svg>
