<svg width="18" height="19" viewBox="0 0 18 19" fill="none" xmlns="http://www.w3.org/2000/svg">
<path d="M14.7373 6.3313C13.9057 6.33727 13.1745 6.06842 12.5593 5.53372C12.3816 5.37838 12.2564 5.34254 12.0338 5.46651C10.2562 6.45825 8.47245 7.43805 6.68558 8.41337C6.47227 8.52987 6.40426 8.64637 6.46455 8.88534C6.56965 9.29907 6.56656 9.72474 6.45991 10.1385C6.40117 10.3625 6.47537 10.47 6.67476 10.5791C8.47399 11.5604 10.267 12.5491 12.0554 13.5468C12.2641 13.6633 12.3785 13.6245 12.547 13.4796C13.5965 12.576 15.0572 12.4117 16.2722 13.0435C17.4701 13.6663 18.1564 14.9658 17.9694 16.2517C17.7746 17.587 16.7529 18.646 15.3834 18.9313C13.1931 19.3868 11.1342 17.5168 11.4897 15.3825C11.5299 15.1435 11.4681 15.03 11.2563 14.915C9.44625 13.9277 7.64239 12.933 5.84162 11.9308C5.63294 11.8143 5.50001 11.8232 5.3037 11.9726C3.94501 13.0077 2.04222 12.8628 0.878286 11.6515C-0.277918 10.4476 -0.294921 8.5926 0.841189 7.38577C2.00976 6.1446 3.9141 5.9818 5.29288 7.02283C5.50156 7.18115 5.63758 7.18713 5.86017 7.06316C7.64857 6.06544 9.44316 5.07817 11.2408 4.09539C11.4402 3.98635 11.5376 3.88628 11.4959 3.63536C11.1991 1.84006 12.5377 0.209056 14.4482 0.0148888C16.2181 -0.164342 17.9029 1.23515 17.9879 2.95578C18.0776 4.81978 16.6277 6.32532 14.7373 6.3313Z" fill="#858585"/>
</svg>
