<svg width="40" height="40" viewBox="0 0 40 40" fill="none" xmlns="http://www.w3.org/2000/svg">
<circle cx="20" cy="20" r="20" fill="#464646"/>
<g clip-path="url(#clip0_0_850)">
<path d="M15.3514 26.2995C14.5853 26.2995 13.8257 26.3012 13.0676 26.2995C12.316 26.2978 12.0028 25.9691 12.0012 25.1684C11.9996 22.918 11.9996 20.6692 12.0012 18.4205C12.0028 17.6232 12.316 17.2995 13.0708 17.2978C13.8289 17.2961 14.5885 17.2978 15.4076 17.2978C15.4076 17.1276 15.4076 16.9792 15.4076 16.8309C15.4076 15.2429 15.406 13.655 15.4076 12.0654C15.4092 11.3388 15.7128 11.0068 16.405 11.0051C18.2728 10.9983 20.139 11.0051 22.0053 11C22.3731 10.9983 22.6686 11.1281 22.9287 11.4096C23.682 12.2255 24.4449 13.0313 25.2158 13.8286C25.4824 14.1051 25.5964 14.4153 25.5884 14.8063C25.5739 15.6189 25.5835 16.4297 25.5835 17.2961C26.3753 17.2961 27.1302 17.2961 27.885 17.2961C28.6961 17.2978 28.9964 17.6097 28.9964 18.4593C28.998 20.6945 28.998 22.9298 28.9964 25.1633C28.9964 25.9573 28.6784 26.2945 27.9332 26.2978C27.1639 26.3012 26.3946 26.2978 25.5835 26.2978C25.5835 26.8929 25.5867 27.4374 25.5819 27.9818C25.5771 28.6511 25.2607 28.9933 24.6183 28.9933C21.872 28.9983 19.1256 28.9983 16.3809 28.9933C15.7256 28.9916 15.4124 28.6426 15.4076 27.9448C15.4044 27.439 15.4028 26.9333 15.3996 26.4276C15.4012 26.404 15.3819 26.3787 15.3514 26.2995ZM17.1181 17.2658C19.389 17.2658 21.6311 17.2658 23.8972 17.2658C23.8972 16.9556 23.8972 16.6758 23.8972 16.396C23.8972 16.1077 23.8972 15.8178 23.8972 15.5042C23.372 15.5042 22.9063 15.5042 22.4405 15.5042C21.6584 15.5025 21.3468 15.1789 21.3452 14.363C21.3436 13.8505 21.3452 13.3364 21.3452 12.8307C19.8981 12.8307 18.5185 12.8307 17.1181 12.8307C17.1181 14.3141 17.1181 15.7706 17.1181 17.2658ZM17.1116 27.1542C19.3874 27.1542 21.6278 27.1542 23.8731 27.1542C23.8731 26.2591 23.8731 25.396 23.8731 24.5194C21.607 24.5194 19.3665 24.5194 17.1116 24.5194C17.1116 25.4061 17.1116 26.2591 17.1116 27.1542Z" fill="white"/>
</g>
<defs>
<clipPath id="clip0_0_850">
<rect width="17" height="18" fill="white" transform="translate(12 11)"/>
</clipPath>
</defs>
</svg>
