<svg width="40" height="40" viewBox="0 0 40 40" fill="none" xmlns="http://www.w3.org/2000/svg">
<circle cx="20" cy="20" r="20" fill="#383838"/>
<g clip-path="url(#clip0_0_842)">
<path d="M10.052 16.9695C11.5691 17.8478 13.0581 18.7096 14.547 19.5714C16.0813 20.4601 17.6235 21.3354 19.1454 22.2421C19.7331 22.5907 20.255 22.5982 20.849 22.2511C23.7312 20.5634 26.626 18.8966 29.5176 17.2238C29.6586 17.143 29.8028 17.0682 30.0003 16.9635C30.0003 17.1371 30.0003 17.2553 30.0003 17.375C30.0003 19.5849 30.0019 21.7948 30.0003 24.0032C29.9987 25.8315 28.781 26.9956 26.8454 26.9986C22.6278 27.0045 18.4103 27.0015 14.1928 27.0001C13.685 27.0001 13.1756 27.0105 12.6709 26.9701C11.204 26.8549 10.0379 25.7178 10.0175 24.3084C9.98463 21.901 10.0081 19.4921 10.0081 17.0847C10.0081 17.0623 10.0254 17.0413 10.052 16.9695Z" fill="white"/>
<path d="M20.0163 13.0015C22.3202 13.0015 24.6225 12.997 26.9264 13.003C28.3009 13.0075 29.3698 13.7002 29.8149 14.8328C29.9136 15.0827 29.8776 15.2144 29.6205 15.3625C26.5032 17.158 23.3937 18.9624 20.289 20.7773C20.0601 20.9119 19.9097 20.888 19.6981 20.7638C16.6059 18.9609 13.5074 17.1609 10.401 15.373C10.1315 15.2174 10.097 15.0782 10.2036 14.8134C10.6659 13.6778 11.716 13.0075 13.1077 13.003C15.41 12.997 17.7139 13.0015 20.0163 13.0015Z" fill="white"/>
</g>
<defs>
<clipPath id="clip0_0_842">
<rect width="20" height="14" fill="white" transform="translate(10 13)"/>
</clipPath>
</defs>
</svg>
