<svg width="15" height="15" viewBox="0 0 15 15" fill="none" xmlns="http://www.w3.org/2000/svg">
<g clip-path="url(#clip0_0_765)">
<path d="M15.0002 7.50491C14.9804 11.6677 11.6163 15.0099 7.47051 14.9901C3.33463 14.9802 -0.0294884 11.5787 0.000194936 7.44558C0.0298783 3.29265 3.39399 -0.0198099 7.55956 -3.39819e-05C11.6757 0.0197419 15.02 3.40142 15.0002 7.50491ZM7.50019 13.6354C10.9336 13.6255 13.6545 10.8767 13.6447 7.42581C13.6348 4.08368 10.8544 1.34473 7.4903 1.35461C4.08661 1.3645 1.34584 4.13312 1.36563 7.54446C1.38542 10.9064 4.14597 13.6453 7.50019 13.6354Z" fill="#8A8A8A"/>
<path d="M6.82709 5.44819C6.82709 4.79558 6.82709 4.14298 6.82709 3.49038C6.82709 3.02564 7.10414 2.71912 7.49992 2.71912C7.89569 2.71912 8.17274 3.02564 8.17274 3.49038C8.17274 4.6176 8.18263 5.75471 8.17274 6.88194C8.17274 7.11925 8.242 7.27746 8.41021 7.43566C8.92472 7.93006 9.42934 8.44423 9.93395 8.94852C10.2902 9.30448 10.3198 9.69011 10.023 9.99664C9.73606 10.2933 9.3205 10.2636 8.97419 9.92742C8.35084 9.30448 7.7077 8.69143 7.11403 8.04871C6.95572 7.87073 6.84688 7.60376 6.83699 7.36645C6.79741 6.72373 6.82709 6.08102 6.82709 5.44819Z" fill="#8A8A8A"/>
</g>
<defs>
<clipPath id="clip0_0_765">
<rect width="15" height="15" fill="white"/>
</clipPath>
</defs>
</svg>
