<svg width="70" height="16" viewBox="0 0 70 16" fill="none" xmlns="http://www.w3.org/2000/svg">
<g clip-path="url(#clip0_0_716)">
<path d="M8.40084 12.9138C5.94781 12.8956 3.88686 11.8868 2.12248 10.1838C1.56075 9.64096 1.07316 9.01327 0.567976 8.40776C0.329207 8.12067 0.326694 7.83227 0.536559 7.54648C1.93398 5.64644 3.62798 4.14181 5.86361 3.42016C8.5064 2.56671 10.9745 3.04042 13.2692 4.59594C14.4165 5.37371 15.3704 6.36809 16.1973 7.49689C16.4323 7.81661 16.4473 8.08805 16.2262 8.38819C14.8061 10.3143 13.0845 11.8333 10.8023 12.5289C10.0295 12.7638 9.21391 12.8486 8.41718 13.0013C8.41341 12.9712 8.40712 12.9425 8.40084 12.9138ZM5.03169 7.96146C5.03295 9.89282 6.53844 11.4575 8.39581 11.4549C10.2293 11.4523 11.7386 9.88238 11.7423 7.97321C11.7449 6.03663 10.2482 4.46936 8.39204 4.46544C6.53844 4.46283 5.03169 6.03011 5.03169 7.96146Z" fill="#8A8A8A"/>
<path d="M10.1929 7.93665C10.2004 8.9741 9.39361 9.83277 8.40586 9.83799C7.39927 9.84321 6.59248 9.02239 6.58117 7.97971C6.56986 6.95139 7.38419 6.0862 8.37068 6.07576C9.3735 6.06662 10.1866 6.89659 10.1929 7.93665Z" fill="#8A8A8A"/>
</g>
<path d="M30.2437 7.7L32.6197 4.712V4.1H27.2197V4.868H31.5157L29.1877 7.784V8.42H29.7877C31.3477 8.42 32.0557 9.08 32.0557 10.088C32.0557 11.132 31.2877 11.78 29.8957 11.78C28.8037 11.78 27.8317 11.372 27.2917 10.808L26.8717 11.492C27.5197 12.152 28.6837 12.572 29.8957 12.572C31.9237 12.572 32.9437 11.492 32.9437 10.088C32.9437 8.744 32.0437 7.796 30.2437 7.7ZM41.3011 9.524H39.6211V7.58H38.7811V9.524H35.1331L39.4291 4.1H38.4691L34.0171 9.668V10.292H38.7571V12.5H39.6211V10.292H41.3011V9.524ZM42.9891 11.252C42.6291 11.252 42.3531 11.528 42.3531 11.9C42.3531 12.212 42.5331 12.44 42.7851 12.512L42.3771 14.252H42.9531L43.4571 12.596C43.5771 12.26 43.6251 12.104 43.6251 11.9C43.6251 11.54 43.3611 11.252 42.9891 11.252ZM55.1527 9.524H53.4727V7.58H52.6327V9.524H48.9847L53.2807 4.1H52.3207L47.8687 9.668V10.292H52.6087V12.5H53.4727V10.292H55.1527V9.524ZM58.1074 7.544H57.0274L57.3154 4.868H61.1554V4.1H56.5594L56.1274 8.312H57.9154C60.0514 8.312 60.7234 8.984 60.7234 10.064C60.7234 11.084 59.9674 11.78 58.5394 11.78C57.4594 11.78 56.4994 11.372 55.9594 10.808L55.5394 11.492C56.1874 12.152 57.3394 12.572 58.5514 12.572C60.6034 12.572 61.5994 11.456 61.5994 10.028C61.5994 8.54 60.6394 7.544 58.1074 7.544ZM66.1763 7.472C65.0123 7.472 64.0283 7.988 63.6083 8.912C63.5843 8.66 63.5723 8.42 63.5723 8.228C63.5723 5.948 64.7363 4.784 66.5483 4.784C67.1723 4.784 67.7483 4.892 68.1803 5.18L68.5283 4.484C68.0003 4.16 67.2923 4.028 66.5363 4.028C64.2563 4.028 62.6963 5.516 62.6963 8.372C62.6963 11.024 63.9083 12.572 66.1403 12.572C67.7723 12.572 69.0083 11.564 69.0083 9.992C69.0083 8.456 67.8443 7.472 66.1763 7.472ZM66.1043 11.84C64.6523 11.84 63.8843 10.964 63.8843 10.04C63.8843 8.996 64.7603 8.204 66.0443 8.204C67.3403 8.204 68.1563 8.912 68.1563 10.016C68.1563 11.132 67.3163 11.84 66.1043 11.84Z" fill="#8A8A8A"/>
<defs>
<clipPath id="clip0_0_716">
<rect width="16" height="10" fill="white" transform="translate(0.384766 3)"/>
</clipPath>
</defs>
</svg>
