<svg width="20" height="18" viewBox="0 0 20 18" fill="none" xmlns="http://www.w3.org/2000/svg">
<g clip-path="url(#clip0_446_1036)">
<path d="M7.50276 17.9986C5.76919 17.9986 4.03562 18.0019 2.30205 17.9986C0.980794 17.992 0.00312355 16.9682 0 15.5844C0 13.0035 0 10.4257 0.00312355 7.84804C0.00624709 6.45451 0.983917 5.43717 2.31767 5.4339C2.70187 5.4339 3.08919 5.43063 3.47338 5.4339C3.69828 5.4339 3.88882 5.35539 4.04812 5.18856C4.25427 4.97266 4.46042 4.75676 4.66658 4.54086C5.09763 4.10252 5.61301 3.87026 6.21273 3.86372C7.13418 3.85391 8.05563 3.85718 8.97707 3.86045C9.33941 3.86045 9.62677 4.08616 9.71735 4.4231C9.80794 4.75676 9.69549 5.12313 9.41125 5.29324C9.27693 5.37502 9.10826 5.42408 8.95521 5.42408C8.08062 5.43717 7.20602 5.4339 6.33143 5.42735C6.06593 5.42408 5.84416 5.50913 5.66299 5.71522C5.48495 5.91476 5.29754 6.10122 5.11325 6.29422C4.66346 6.762 4.11683 6.99426 3.48275 7.0008C3.08606 7.00407 2.6925 7.0008 2.29581 7.0008C1.8179 7.00407 1.50243 7.33446 1.50243 7.83496C1.50243 10.4127 1.50243 12.9936 1.50243 15.5713C1.50243 16.098 1.80853 16.4186 2.3083 16.4186C5.35376 16.4219 8.39922 16.4186 11.4447 16.4219C11.857 16.4219 12.2662 16.4251 12.6785 16.4219C13.1907 16.4186 13.4937 16.1013 13.4937 15.5648C13.4937 13.782 13.4937 11.9992 13.4937 10.2164C13.4937 9.90563 13.5874 9.6472 13.8467 9.4771C14.0872 9.32008 14.3402 9.307 14.5901 9.44439C14.8462 9.58505 14.993 9.81076 14.993 10.115C14.9961 11.9894 15.0086 13.8671 14.9899 15.7415C14.9774 16.9518 13.9935 17.9626 12.8253 17.9855C11.8726 18.0051 10.9199 17.992 9.96724 17.992C9.14575 17.9986 8.32425 17.9986 7.50276 17.9986Z" fill="#858585"/>
<path d="M7.49687 15.4285C5.42812 15.4253 3.75 13.6992 3.75 11.5714C3.75 9.44352 5.43125 7.71423 7.49687 7.71423C9.575 7.71423 11.2531 9.44673 11.25 11.581C11.2469 13.7121 9.56875 15.4317 7.49687 15.4285ZM5.25312 11.5778C5.25625 12.8539 6.26562 13.8889 7.50312 13.8857C8.75312 13.8824 9.75312 12.8474 9.75 11.5585C9.74687 10.2857 8.7375 9.25709 7.49375 9.2603C6.25312 9.26352 5.25 10.2985 5.25312 11.5778Z" fill="#858585"/>
<path d="M14.3744 5.78819C14.3744 6.22732 14.377 6.65038 14.3744 7.07344C14.3692 7.44831 14.0778 7.73213 13.7162 7.71339C13.3806 7.69732 13.1309 7.42153 13.1257 7.0547C13.1205 6.68519 13.1257 6.313 13.1231 5.94349C13.1231 5.89529 13.1231 5.8471 13.1231 5.78551C13.0607 5.78551 13.0138 5.78551 12.967 5.78551C12.608 5.78551 12.2464 5.78819 11.8874 5.78551C11.5284 5.78283 11.2552 5.50704 11.25 5.14824C11.2474 4.79479 11.518 4.51097 11.8796 4.50293C12.2438 4.49758 12.608 4.49758 12.9722 4.50293C13.0867 4.50561 13.1309 4.47616 13.1283 4.34763C13.1205 3.96741 13.1205 3.58987 13.1283 3.20965C13.1335 2.91779 13.313 2.6768 13.5731 2.59915C13.8385 2.51882 14.1247 2.61522 14.2651 2.85888C14.3276 2.96866 14.3666 3.1079 14.3718 3.23642C14.3848 3.60058 14.377 3.96741 14.377 4.33424C14.377 4.38244 14.377 4.43064 14.377 4.50026C14.442 4.50026 14.4967 4.50026 14.5513 4.50026C14.9077 4.50026 15.2615 4.49758 15.6179 4.50293C15.8989 4.50561 16.1226 4.67162 16.2111 4.92332C16.2995 5.17234 16.2345 5.44278 16.0446 5.6195C15.9197 5.73731 15.7714 5.78819 15.6049 5.78819C15.1991 5.78819 14.7958 5.78819 14.3744 5.78819Z" fill="#858585"/>
</g>
<defs>
<clipPath id="clip0_446_1036">
<rect width="20" height="18" fill="white"/>
</clipPath>
</defs>
</svg>
