<svg width="14" height="14" viewBox="0 0 14 14" fill="none" xmlns="http://www.w3.org/2000/svg">
<path d="M9.35087 1.60203C7.21516 -0.533686 3.73911 -0.533686 1.6034 1.60203C-0.531861 3.73821 -0.531861 7.21379 1.6034 9.34997C3.50531 11.2514 6.46745 11.4551 8.60178 9.97037C8.64668 10.1829 8.74947 10.3857 8.91475 10.5509L12.025 13.6612C12.4783 14.1136 13.2107 14.1136 13.6617 13.6612C14.1145 13.2084 14.1145 12.476 13.6617 12.0246L10.5514 8.91339C10.387 8.74949 10.1838 8.64625 9.97127 8.60134C11.457 6.46655 11.2533 3.50487 9.35087 1.60203ZM8.3689 8.368C6.7744 9.96249 4.17941 9.96249 2.58537 8.368C0.991801 6.7735 0.991801 4.17897 2.58537 2.58447C4.17941 0.990439 6.7744 0.990439 8.3689 2.58447C9.9634 4.17897 9.9634 6.7735 8.3689 8.368Z" fill="white"/>
</svg>
