<svg width="46" height="36" viewBox="0 0 46 36" fill="none" xmlns="http://www.w3.org/2000/svg">
<circle cx="18" cy="18" r="18" fill="#FFF6EE"/>
<path fill-rule="evenodd" clip-rule="evenodd" d="M9.09766 11.9967C9.09766 11.4996 9.5006 11.0967 9.99766 11.0967H11.5811C11.9869 11.0967 12.3426 11.3683 12.4494 11.7599L12.9283 13.5159L24.3076 14.2655C24.7806 14.2966 25.1484 14.6894 25.1484 15.1635V19.9138C25.1484 20.3841 24.7863 20.7751 24.3174 20.8111L14.0252 21.6028C13.5948 21.6359 13.2015 21.3588 13.0879 20.9423L11.3605 14.6086L10.8937 12.8967H9.99766C9.5006 12.8967 9.09766 12.4937 9.09766 11.9967ZM15.6216 15.7372C15.501 15.255 15.0124 14.9618 14.5302 15.0824C14.048 15.2029 13.7548 15.6916 13.8753 16.1738L14.667 19.3406C14.7876 19.8229 15.2762 20.116 15.7584 19.9955C16.2407 19.8749 16.5338 19.3863 16.4133 18.9041L15.6216 15.7372ZM18.1833 15.2622C18.6754 15.1919 19.1313 15.5338 19.2016 16.0259L19.5974 18.7969C19.6677 19.2889 19.3258 19.7448 18.8337 19.8151C18.3417 19.8854 17.8858 19.5435 17.8155 19.0514L17.4196 16.2804C17.3494 15.7884 17.6913 15.3325 18.1833 15.2622ZM22.7737 16.3513C22.7737 15.8542 22.3708 15.4513 21.8737 15.4513C21.3766 15.4513 20.9737 15.8542 20.9737 16.3513V18.7264C20.9737 19.2234 21.3766 19.6264 21.8737 19.6264C22.3708 19.6264 22.7737 19.2234 22.7737 18.7264V16.3513Z" fill="#FF7F00"/>
<circle cx="15.5405" cy="23.8725" r="1.58342" fill="#FF7F00"/>
<circle cx="21.8725" cy="23.8725" r="1.58342" fill="#FF7F00"/>
<circle cx="38" cy="9" r="8" fill="#FE0101"/>
<path d="M35.0781 5.92C36.0181 5.92 36.7415 6.22333 37.2481 6.83C37.7615 7.43667 38.0181 8.29667 38.0181 9.41C38.0181 10.19 37.8781 10.8567 37.5981 11.41C37.3248 11.9567 36.9381 12.3733 36.4381 12.66C35.9448 12.94 35.3681 13.08 34.7081 13.08C34.3681 13.08 34.0481 13.0467 33.7481 12.98C33.4481 12.9067 33.1881 12.8033 32.9681 12.67L33.3481 11.89C33.6881 12.11 34.1381 12.22 34.6981 12.22C35.4248 12.22 35.9915 11.9967 36.3981 11.55C36.8115 11.0967 37.0181 10.44 37.0181 9.58V9.33C36.8181 9.63 36.5415 9.86 36.1881 10.02C35.8348 10.1733 35.4381 10.25 34.9981 10.25C34.5381 10.25 34.1248 10.1633 33.7581 9.99C33.3981 9.81667 33.1148 9.57 32.9081 9.25C32.7081 8.92333 32.6081 8.55 32.6081 8.13C32.6081 7.69 32.7148 7.30333 32.9281 6.97C33.1481 6.63667 33.4448 6.38 33.8181 6.2C34.1915 6.01333 34.6115 5.92 35.0781 5.92ZM35.1681 9.44C35.4815 9.44 35.7615 9.38 36.0081 9.26C36.2548 9.14 36.4448 8.97667 36.5781 8.77C36.7181 8.56333 36.7881 8.33333 36.7881 8.08C36.7881 7.83333 36.7215 7.61 36.5881 7.41C36.4615 7.20333 36.2715 7.04 36.0181 6.92C35.7715 6.79333 35.4715 6.73 35.1181 6.73C34.6581 6.73 34.2848 6.85333 33.9981 7.1C33.7181 7.34667 33.5781 7.67667 33.5781 8.09C33.5781 8.50333 33.7215 8.83333 34.0081 9.08C34.2948 9.32 34.6815 9.44 35.1681 9.44ZM41.25 5.92C42.19 5.92 42.9133 6.22333 43.42 6.83C43.9333 7.43667 44.19 8.29667 44.19 9.41C44.19 10.19 44.05 10.8567 43.77 11.41C43.4967 11.9567 43.11 12.3733 42.61 12.66C42.1167 12.94 41.54 13.08 40.88 13.08C40.54 13.08 40.22 13.0467 39.92 12.98C39.62 12.9067 39.36 12.8033 39.14 12.67L39.52 11.89C39.86 12.11 40.31 12.22 40.87 12.22C41.5967 12.22 42.1633 11.9967 42.57 11.55C42.9833 11.0967 43.19 10.44 43.19 9.58V9.33C42.99 9.63 42.7133 9.86 42.36 10.02C42.0067 10.1733 41.61 10.25 41.17 10.25C40.71 10.25 40.2967 10.1633 39.93 9.99C39.57 9.81667 39.2867 9.57 39.08 9.25C38.88 8.92333 38.78 8.55 38.78 8.13C38.78 7.69 38.8867 7.30333 39.1 6.97C39.32 6.63667 39.6167 6.38 39.99 6.2C40.3633 6.01333 40.7833 5.92 41.25 5.92ZM41.34 9.44C41.6533 9.44 41.9333 9.38 42.18 9.26C42.4267 9.14 42.6167 8.97667 42.75 8.77C42.89 8.56333 42.96 8.33333 42.96 8.08C42.96 7.83333 42.8933 7.61 42.76 7.41C42.6333 7.20333 42.4433 7.04 42.19 6.92C41.9433 6.79333 41.6433 6.73 41.29 6.73C40.83 6.73 40.4567 6.85333 40.17 7.1C39.89 7.34667 39.75 7.67667 39.75 8.09C39.75 8.50333 39.8933 8.83333 40.18 9.08C40.4667 9.32 40.8533 9.44 41.34 9.44Z" fill="white"/>
</svg>
