<svg width="16" height="16" viewBox="0 0 16 16" fill="none" xmlns="http://www.w3.org/2000/svg">
<circle cx="8" cy="8" r="8" fill="#FE0101"/>
<path d="M5.07813 4.92C6.01813 4.92 6.74146 5.22333 7.24813 5.83C7.76146 6.43667 8.01813 7.29667 8.01813 8.41C8.01813 9.19 7.87813 9.85667 7.59813 10.41C7.32479 10.9567 6.93813 11.3733 6.43813 11.66C5.94479 11.94 5.36813 12.08 4.70813 12.08C4.36813 12.08 4.04813 12.0467 3.74813 11.98C3.44813 11.9067 3.18813 11.8033 2.96813 11.67L3.34813 10.89C3.68813 11.11 4.13813 11.22 4.69813 11.22C5.42479 11.22 5.99146 10.9967 6.39813 10.55C6.81146 10.0967 7.01813 9.44 7.01813 8.58V8.33C6.81813 8.63 6.54146 8.86 6.18813 9.02C5.83479 9.17333 5.43813 9.25 4.99813 9.25C4.53813 9.25 4.12479 9.16333 3.75813 8.99C3.39813 8.81667 3.11479 8.57 2.90813 8.25C2.70813 7.92333 2.60813 7.55 2.60813 7.13C2.60813 6.69 2.71479 6.30333 2.92813 5.97C3.14813 5.63667 3.44479 5.38 3.81813 5.2C4.19146 5.01333 4.61146 4.92 5.07813 4.92ZM5.16813 8.44C5.48146 8.44 5.76146 8.38 6.00813 8.26C6.25479 8.14 6.44479 7.97667 6.57813 7.77C6.71813 7.56333 6.78813 7.33333 6.78813 7.08C6.78813 6.83333 6.72146 6.61 6.58813 6.41C6.46146 6.20333 6.27146 6.04 6.01813 5.92C5.77146 5.79333 5.47146 5.73 5.11813 5.73C4.65813 5.73 4.28479 5.85333 3.99813 6.1C3.71813 6.34667 3.57812 6.67667 3.57812 7.09C3.57812 7.50333 3.72146 7.83333 4.00813 8.08C4.29479 8.32 4.68146 8.44 5.16813 8.44ZM11.25 4.92C12.19 4.92 12.9133 5.22333 13.42 5.83C13.9333 6.43667 14.19 7.29667 14.19 8.41C14.19 9.19 14.05 9.85667 13.77 10.41C13.4967 10.9567 13.11 11.3733 12.61 11.66C12.1167 11.94 11.54 12.08 10.88 12.08C10.54 12.08 10.22 12.0467 9.92 11.98C9.62 11.9067 9.36 11.8033 9.14 11.67L9.52 10.89C9.86 11.11 10.31 11.22 10.87 11.22C11.5967 11.22 12.1633 10.9967 12.57 10.55C12.9833 10.0967 13.19 9.44 13.19 8.58V8.33C12.99 8.63 12.7133 8.86 12.36 9.02C12.0067 9.17333 11.61 9.25 11.17 9.25C10.71 9.25 10.2967 9.16333 9.93 8.99C9.57 8.81667 9.28667 8.57 9.08 8.25C8.88 7.92333 8.78 7.55 8.78 7.13C8.78 6.69 8.88667 6.30333 9.1 5.97C9.32 5.63667 9.61667 5.38 9.99 5.2C10.3633 5.01333 10.7833 4.92 11.25 4.92ZM11.34 8.44C11.6533 8.44 11.9333 8.38 12.18 8.26C12.4267 8.14 12.6167 7.97667 12.75 7.77C12.89 7.56333 12.96 7.33333 12.96 7.08C12.96 6.83333 12.8933 6.61 12.76 6.41C12.6333 6.20333 12.4433 6.04 12.19 5.92C11.9433 5.79333 11.6433 5.73 11.29 5.73C10.83 5.73 10.4567 5.85333 10.17 6.1C9.89 6.34667 9.75 6.67667 9.75 7.09C9.75 7.50333 9.89333 7.83333 10.18 8.08C10.4667 8.32 10.8533 8.44 11.34 8.44Z" fill="white"/>
</svg>
