<svg width="15" height="15" viewBox="0 0 15 15" fill="none" xmlns="http://www.w3.org/2000/svg">
<path d="M7.5 15C11.6421 15 15 11.6421 15 7.5C15 3.35786 11.6421 0 7.5 0C3.35786 0 0 3.35786 0 7.5C0 11.6421 3.35786 15 7.5 15Z" fill="#F0F0F0"/>
<path d="M1.54983 2.93372C0.960703 3.70021 0.516475 4.58366 0.257812 5.54339H4.15951L1.54983 2.93372Z" fill="#0052B4"/>
<path d="M14.7415 5.54338C14.4828 4.58366 14.0386 3.70021 13.4495 2.93372L10.8398 5.54338H14.7415Z" fill="#0052B4"/>
<path d="M0.257812 9.45642C0.516504 10.4161 0.960732 11.2996 1.54983 12.066L4.15942 9.45642H0.257812Z" fill="#0052B4"/>
<path d="M12.0667 1.55023C11.3002 0.961099 10.4168 0.51687 9.45703 0.258179V4.15985L12.0667 1.55023Z" fill="#0052B4"/>
<path d="M2.93359 13.4494C3.70009 14.0386 4.58354 14.4828 5.54324 14.7415V10.8398L2.93359 13.4494Z" fill="#0052B4"/>
<path d="M5.54321 0.258179C4.58351 0.51687 3.70006 0.961099 2.93359 1.5502L5.54321 4.15982V0.258179Z" fill="#0052B4"/>
<path d="M9.45703 14.7415C10.4167 14.4828 11.3002 14.0386 12.0667 13.4495L9.45703 10.8398V14.7415Z" fill="#0052B4"/>
<path d="M10.8398 9.45642L13.4495 12.0661C14.0386 11.2996 14.4828 10.4161 14.7415 9.45642H10.8398Z" fill="#0052B4"/>
<path d="M14.9365 6.52175H8.47831H8.47828V0.0634863C8.15804 0.0217969 7.83155 0 7.5 0C7.16839 0 6.84196 0.0217969 6.52175 0.0634863V6.52169V6.52172H0.0634863C0.0217969 6.84196 0 7.16845 0 7.5C0 7.83161 0.0217969 8.15804 0.0634863 8.47825H6.52169H6.52172V14.9365C6.84196 14.9782 7.16839 15 7.5 15C7.83155 15 8.15804 14.9782 8.47825 14.9365V8.47831V8.47828H14.9365C14.9782 8.15804 15 7.83161 15 7.5C15 7.16845 14.9782 6.84196 14.9365 6.52175Z" fill="#D80027"/>
<path d="M9.45703 9.45669L12.8038 12.8035C12.9577 12.6496 13.1046 12.4887 13.2446 12.322L10.3794 9.45667H9.45703V9.45669Z" fill="#D80027"/>
<path d="M5.54404 9.45667H5.54398L2.19727 12.8034C2.35113 12.9573 2.512 13.1042 2.67876 13.2443L5.54404 10.3789V9.45667Z" fill="#D80027"/>
<path d="M5.54348 5.54351V5.54345L2.19672 2.19666C2.04279 2.35052 1.89596 2.51139 1.75586 2.67815L4.62118 5.54348H5.54348V5.54351Z" fill="#D80027"/>
<path d="M9.45703 5.54338L12.8038 2.19657C12.65 2.04264 12.4891 1.89581 12.3223 1.75574L9.45703 4.62106V5.54338Z" fill="#D80027"/>
</svg>
