<svg width="14" height="14" viewBox="0 0 14 14" fill="none" xmlns="http://www.w3.org/2000/svg">
<g clip-path="url(#clip0_0_652)">
<path d="M12.508 8.41957C12.508 8.4724 12.508 8.57806 12.508 8.68372C12.508 9.89882 12.508 11.0963 12.508 12.3114C12.508 13.4032 11.894 14.002 10.8063 14.002C10.1571 14.002 9.50802 14.002 8.8589 14.002C8.49048 14.002 8.35013 13.8611 8.35013 13.4913C8.35013 12.4875 8.35013 11.5013 8.35013 10.4976C8.35013 9.89882 8.10451 9.65228 7.50802 9.65228C7.15714 9.65228 6.78872 9.65228 6.43784 9.65228C5.91153 9.65228 5.64837 9.91643 5.64837 10.4447C5.64837 11.4133 5.64837 12.3642 5.64837 13.3328C5.64837 13.9139 5.56065 14.002 4.96416 14.002C4.35012 14.002 3.71855 14.002 3.10451 14.002C2.12206 14.002 1.50802 13.368 1.49048 12.3818C1.49048 11.1491 1.49048 9.91643 1.49048 8.68372C1.49048 8.57806 1.49048 8.4724 1.49048 8.34913C1.35013 8.33152 1.22732 8.33152 1.10451 8.31391C0.613283 8.22586 0.27995 7.96171 0.104511 7.48624C-0.088471 7.02838 -0.000751723 6.60574 0.297494 6.21831C0.350125 6.14787 0.437845 6.07743 0.50802 6.00699C2.31504 4.17555 4.1396 2.3441 5.96416 0.512653C6.64837 -0.17414 7.35012 -0.17414 8.03434 0.512653C9.87644 2.36171 11.7185 4.21077 13.5607 6.05982C14.1922 6.69379 14.1571 7.62712 13.4554 8.08498C13.1922 8.24347 12.8764 8.2963 12.508 8.41957Z" fill="#8C8C8C"/>
</g>
<defs>
<clipPath id="clip0_0_652">
<rect width="14" height="14" fill="white"/>
</clipPath>
</defs>
</svg>
