<svg width="158" height="26" viewBox="0 0 158 26" fill="none" xmlns="http://www.w3.org/2000/svg">
<path d="M8.03543 5.37927L4.06286 11.8344L0 5.9172V5.37927H8.03543Z" fill="#FF0000"/>
<path d="M6.13867 9.50347L8.84724 5.28967H13.7227V9.50347H6.13867Z" fill="#FF7F00"/>
<path d="M0 14.4345V7.26208L4.87543 14.4345H0Z" fill="#FF1A00"/>
<path d="M13.8136 19.0069H6.41016L9.84101 13.2689L13.8136 18.2V19.0069Z" fill="#FF4D00"/>
<path d="M7.85486 15.2413H0V19.0069H5.41714L7.85486 15.2413Z" fill="#FF3400"/>
<path d="M13.7229 10.3103H8.48633L13.8132 17.1241V10.3103H13.7229Z" fill="#FF6600"/>
<path d="M15.9805 3.94483V0H21.0365V3.94483H15.9805ZM15.9805 19.0965V5.28965H21.0365V19.0965H15.9805Z" fill="#FF0000"/>
<path d="M23.7461 19.0965V5.28965H28.3507V7.35172C28.8021 6.54482 29.3438 5.91724 30.0661 5.55862C30.6981 5.11034 31.5107 4.93103 32.5038 4.93103C33.4067 4.93103 34.129 5.11034 34.761 5.55862C35.393 6.00689 35.8444 6.54482 36.2958 7.35172C36.8375 6.54482 37.3792 5.91724 38.1015 5.55862C38.8238 5.2 39.6364 4.93103 40.5392 4.93103C41.9838 4.93103 43.1575 5.37931 43.8798 6.27586C44.6924 7.17241 45.0535 8.42758 45.0535 10.0414V19.0965H39.9975V11.2069C39.9975 10.4897 39.9072 9.95172 39.6364 9.68275C39.3655 9.41379 39.0044 9.23448 38.4627 9.23448C38.0112 9.23448 37.5598 9.41379 37.2889 9.77241C37.0181 10.131 36.8375 10.5793 36.8375 11.2069V19.0965H31.8718V11.2965C31.8718 10.5793 31.7815 10.131 31.5107 9.77241C31.2398 9.41379 30.8787 9.23448 30.4272 9.23448C29.8855 9.23448 29.4341 9.41379 29.2535 9.77241C28.9827 10.131 28.8924 10.669 28.8924 11.4759V19.1862H23.7461V19.0965Z" fill="#FF0000"/>
<path d="M47.4006 10.1311C47.4909 8.33798 48.0326 7.08281 49.2064 6.18626C50.2898 5.28971 51.9149 4.84143 54.0818 4.84143C54.9846 4.84143 55.8875 4.93109 56.6098 5.02074C57.3321 5.20005 57.9641 5.37936 58.5058 5.64833C59.4086 6.0966 60.1309 6.72419 60.4921 7.44143C60.8532 8.15867 61.0338 9.23453 61.0338 10.5794V17.8414C61.0338 18.0207 61.1241 18.2001 61.2144 18.3794C61.3046 18.5587 61.4852 18.6483 61.6658 18.738V19.0966H56.3389L56.1584 17.5725C55.6166 18.2897 54.9846 18.738 54.3526 19.0966C53.7206 19.3656 52.8178 19.5449 51.7344 19.5449C50.1995 19.5449 49.0258 19.1863 48.2132 18.3794C47.3104 17.6621 46.9492 16.5863 46.9492 15.3311C46.9492 14.0759 47.3104 13.0897 48.1229 12.3725C48.9355 11.6552 50.2898 11.2069 52.1858 10.8483C52.4566 10.7587 52.8178 10.7587 53.2692 10.669C55.0749 10.4001 55.9778 9.95178 55.9778 9.41384C55.9778 9.05522 55.7972 8.78626 55.5264 8.60695C55.2555 8.42764 54.8041 8.33798 54.2624 8.33798C53.6304 8.33798 53.1789 8.51729 52.8178 8.78626C52.5469 9.05522 52.2761 9.5035 52.2761 10.1311H47.4006ZM56.0681 12.8207C55.7069 13.0897 55.1652 13.3587 54.3526 13.538C54.2624 13.538 54.2624 13.538 54.1721 13.538C53.1789 13.8069 52.5469 13.9863 52.2761 14.1656C52.0052 14.3449 51.8246 14.6138 51.8246 14.9725C51.8246 15.3311 52.0052 15.6001 52.2761 15.7794C52.6372 15.9587 52.9984 16.138 53.5401 16.138C54.3526 16.138 54.9846 15.869 55.4361 15.4207C55.8875 14.9725 56.0681 14.2552 56.0681 13.3587C56.0681 13.1794 56.0681 13.0897 56.0681 13.0001C56.0681 13.0001 56.0681 12.9104 56.0681 12.8207Z" fill="#FF0000"/>
<path d="M68.076 11.5655C68.076 12.5517 68.2565 13.269 68.6177 13.7172C68.9788 14.1655 69.5206 14.4345 70.2428 14.4345C70.9651 14.4345 71.5068 14.1655 71.868 13.7172C72.2291 13.269 72.4097 12.5517 72.4097 11.5655C72.4097 10.5793 72.2291 9.86207 71.868 9.41379C71.5068 8.96551 70.9651 8.69655 70.2428 8.69655C69.5206 8.69655 68.9788 8.96551 68.6177 9.41379C68.2565 9.86207 68.076 10.5793 68.076 11.5655ZM72.2291 16.7655C71.6874 17.3034 71.1457 17.6621 70.5137 17.931C69.972 18.2 69.2497 18.2897 68.5274 18.2897C66.812 18.2897 65.4577 17.6621 64.4645 16.4965C63.4714 15.331 62.9297 13.6276 62.9297 11.5655C62.9297 9.50344 63.4714 7.88965 64.4645 6.72413C65.4577 5.55862 66.812 4.93103 68.5274 4.93103C69.34 4.93103 70.1526 5.11034 70.6943 5.37931C71.3263 5.64827 71.868 6.09655 72.3194 6.81379V5.28965H77.1948V17.2138C77.1948 19.3655 76.5628 20.9793 75.3891 22.1448C74.2154 23.2207 72.4097 23.7586 69.972 23.7586C67.9857 23.7586 66.4508 23.4 65.3674 22.6828C64.284 21.9655 63.652 20.8 63.4714 19.3655H68.4371C68.5274 19.7241 68.6177 19.9931 68.8886 20.1724C69.1594 20.3517 69.5205 20.4414 69.972 20.4414C70.6943 20.4414 71.236 20.1724 71.5971 19.6345C71.9583 19.0965 72.1388 18.3793 72.1388 17.3034C72.1388 17.2138 72.1388 17.2138 72.1388 17.0345C72.2291 16.8552 72.2291 16.7655 72.2291 16.7655Z" fill="#FF0000"/>
<path d="M93.6269 14.8828C93.2658 16.3173 92.5435 17.4828 91.2795 18.2897C90.0155 19.0966 88.4806 19.5449 86.6749 19.5449C84.4178 19.5449 82.6121 18.9173 81.2578 17.5725C79.9035 16.2276 79.2715 14.4345 79.2715 12.1932C79.2715 10.0414 79.9035 8.33799 81.2578 6.99317C82.6121 5.64834 84.3275 5.02075 86.4943 5.02075C88.7515 5.02075 90.5572 5.73799 91.9115 7.17248C93.1755 8.60696 93.8978 10.669 93.8978 13.269V13.4483H84.1469C84.2372 14.2552 84.5081 14.7932 85.0498 15.2414C85.5012 15.6897 86.0429 15.869 86.7652 15.869C87.2166 15.869 87.5778 15.7794 87.9389 15.6001C88.3001 15.4208 88.4806 15.1518 88.6612 14.7932H93.6269V14.8828ZM84.3275 10.5794H89.0223C88.9321 9.95179 88.6612 9.41386 88.2098 9.05523C87.7583 8.69661 87.3069 8.5173 86.5846 8.5173C86.0429 8.5173 85.5012 8.69661 85.1401 9.05523C84.6886 9.41386 84.4178 9.86213 84.3275 10.5794Z" fill="#FF0000"/>
<path d="M95.1621 14.2552C95.2524 17.1242 97.0581 18.6483 100.308 18.6483C103.739 18.6483 105.635 17.1242 105.635 14.5242C105.635 12.3724 104.371 11.5655 101.753 10.938L99.6764 10.4897C98.3221 10.2207 97.6901 9.8621 97.6901 8.96555C97.6901 7.88968 98.593 7.2621 100.308 7.2621C102.024 7.2621 103.107 7.97934 103.198 9.32417H105.274V9.23451C105.274 6.90348 103.378 5.46899 100.308 5.46899C97.2387 5.46899 95.5233 6.90348 95.5233 9.0552C95.5233 11.1173 96.6067 11.9242 99.1347 12.5518L101.482 13.1793C102.836 13.4483 103.468 13.8069 103.468 14.8828C103.468 16.0483 102.385 16.8552 100.489 16.8552C98.5027 16.8552 97.4192 15.9586 97.2387 14.2552H95.1621Z" fill="#FF8202"/>
<path d="M116.739 14.3448C116.378 15.9586 115.204 16.8551 113.489 16.8551C111.231 16.8551 109.877 15.4207 109.787 12.731H118.996C118.996 12.462 118.996 12.1034 118.996 11.8345C118.996 7.79997 116.829 5.55859 113.218 5.55859C109.697 5.55859 107.439 7.97928 107.439 12.2827C107.439 16.3172 109.697 18.7379 113.218 18.7379C116.197 18.7379 118.364 17.0345 118.815 14.3448H116.739ZM109.697 10.9379C109.877 8.60687 111.141 7.26204 113.218 7.26204C115.385 7.26204 116.649 8.51721 116.649 10.9379H109.697Z" fill="#FF8202"/>
<path d="M121.434 18.2896H123.6V1.25513H121.434V18.2896Z" fill="#FF8202"/>
<path d="M135.518 14.3448C135.157 15.9586 133.983 16.8551 132.268 16.8551C130.011 16.8551 128.656 15.4207 128.566 12.731H137.775C137.775 12.462 137.775 12.1034 137.775 11.8345C137.775 7.79997 135.608 5.55859 131.997 5.55859C128.476 5.55859 126.219 7.97928 126.219 12.2827C126.219 16.3172 128.476 18.7379 131.997 18.7379C134.976 18.7379 137.143 17.0345 137.595 14.3448H135.518ZM128.566 10.9379C128.747 8.60687 130.011 7.26204 132.087 7.26204C134.254 7.26204 135.518 8.51721 135.518 10.9379H128.566Z" fill="#FF8202"/>
<path d="M148.791 10.0414H150.958C150.867 7.2621 148.791 5.46899 145.54 5.46899C141.929 5.46899 139.672 7.97934 139.672 12.1035C139.672 16.2276 141.839 18.6483 145.27 18.6483C148.61 18.6483 150.687 16.8552 150.958 13.8069H148.881C148.61 15.6897 147.346 16.7655 145.36 16.7655C143.193 16.7655 141.839 15.0621 141.839 12.0138C141.839 8.96555 143.193 7.35175 145.45 7.35175C147.527 7.35175 148.61 8.33796 148.791 10.0414Z" fill="#FF8202"/>
<path d="M155.653 15.1517V7.531H157.91V5.91721H155.653V2.42065H153.486V5.91721H151.59V7.62066H153.486V15.9586C153.486 17.8413 154.208 18.5586 156.194 18.5586C156.646 18.5586 157.278 18.4689 157.91 18.3793V16.5862C157.368 16.6758 157.007 16.6758 156.736 16.6758C155.833 16.5862 155.653 16.2276 155.653 15.1517Z" fill="#FF8202"/>
<path d="M95.4316 23.6689C95.4316 24.2965 95.8831 24.6552 96.6956 24.6552C97.5082 24.6552 98.0499 24.2965 98.0499 23.7586C98.0499 23.2207 97.7791 23.0414 97.0568 22.9517L96.5151 22.862C96.1539 22.7724 95.9734 22.6827 95.9734 22.5034C95.9734 22.2345 96.1539 22.1448 96.6054 22.1448C97.0568 22.1448 97.3277 22.3241 97.3277 22.5931H97.8694C97.8694 22.0552 97.4179 21.6965 96.6054 21.6965C95.8831 21.6965 95.4316 22.0552 95.4316 22.5034C95.4316 22.9517 95.7025 23.131 96.3345 23.3103L96.9665 23.4896C97.3276 23.5793 97.4179 23.6689 97.4179 23.8483C97.4179 24.1172 97.1471 24.2965 96.6956 24.2965C96.1539 24.2965 95.8831 24.1172 95.8831 23.7586H95.4316V23.6689Z" fill="#FF0000"/>
<path d="M99.3135 23.8482V22.1448H99.8552V21.7861H99.3135V20.9792H98.7717V21.7861H98.3203V22.1448H98.7717V24.0275C98.7717 24.4758 98.9523 24.6551 99.494 24.6551C99.5843 24.6551 99.7649 24.6551 99.9454 24.6551V24.2068C99.8552 24.2068 99.7649 24.2068 99.6746 24.2068C99.3135 24.2068 99.3135 24.1172 99.3135 23.8482Z" fill="#FF0000"/>
<path d="M100.217 23.1311C100.217 24.1173 100.759 24.6552 101.752 24.6552C102.745 24.6552 103.287 24.1173 103.287 23.1311C103.287 22.1449 102.745 21.6069 101.752 21.6069C100.759 21.6966 100.217 22.2345 100.217 23.1311ZM100.759 23.1311C100.759 22.4138 101.12 22.0552 101.752 22.0552C102.384 22.0552 102.745 22.4138 102.745 23.1311C102.745 23.8483 102.384 24.2069 101.752 24.2069C101.12 24.2069 100.759 23.8483 100.759 23.1311Z" fill="#FF0000"/>
<path d="M105.995 22.6827H106.537C106.537 22.0552 105.995 21.6965 105.183 21.6965C104.28 21.6965 103.738 22.2345 103.738 23.2207C103.738 24.1172 104.28 24.7448 105.093 24.7448C105.905 24.7448 106.447 24.2965 106.537 23.6689H105.995C105.905 24.1172 105.634 24.2965 105.093 24.2965C104.551 24.2965 104.19 23.9379 104.19 23.2207C104.19 22.5034 104.551 22.1448 105.093 22.1448C105.725 22.0552 105.995 22.3241 105.995 22.6827Z" fill="#FF0000"/>
<path d="M107.078 24.5655H107.62V23.5793L108.162 23.131L109.064 24.5655H109.696L108.523 22.7724L109.696 21.7862H109.064L107.62 23.0414V20.7103H107.078V24.5655Z" fill="#FF0000"/>
<path d="M111.863 25.7311H112.405V24.2069C112.676 24.4759 112.947 24.6552 113.398 24.6552C114.211 24.6552 114.752 24.1173 114.752 23.1311C114.752 22.2345 114.211 21.6069 113.398 21.6069C112.947 21.6069 112.586 21.7862 112.405 22.0552V21.6966H111.863V25.7311ZM112.405 23.2207C112.405 22.5035 112.766 22.1449 113.308 22.1449C113.85 22.1449 114.301 22.5035 114.301 23.2207C114.301 23.938 113.94 24.2966 113.398 24.2966C112.766 24.2069 112.405 23.938 112.405 23.2207Z" fill="#FF0000"/>
<path d="M117.641 24.5655H118.183V22.7724C118.183 22.5034 118.183 22.2345 118.003 22.0552C117.822 21.7862 117.461 21.6965 117.009 21.6965C116.558 21.6965 116.197 21.8758 116.016 22.1448V20.7103H115.475V24.5655H116.016V22.8621C116.016 22.4138 116.377 22.0552 116.919 22.0552C117.461 22.0552 117.551 22.3241 117.551 22.7724V24.5655H117.641Z" fill="#FF0000"/>
<path d="M118.816 23.1311C118.816 24.1173 119.358 24.6552 120.351 24.6552C121.344 24.6552 121.886 24.1173 121.886 23.1311C121.886 22.1449 121.344 21.6069 120.351 21.6069C119.358 21.6966 118.816 22.2345 118.816 23.1311ZM119.358 23.1311C119.358 22.4138 119.719 22.0552 120.351 22.0552C120.983 22.0552 121.344 22.4138 121.344 23.1311C121.344 23.8483 120.983 24.2069 120.351 24.2069C119.719 24.2069 119.358 23.8483 119.358 23.1311Z" fill="#FF0000"/>
<path d="M123.149 23.8482V22.1448H123.691V21.7861H123.149V20.9792H122.608V21.7861H122.156V22.1448H122.608V24.0275C122.608 24.4758 122.788 24.6551 123.33 24.6551C123.42 24.6551 123.601 24.6551 123.781 24.6551V24.2068C123.691 24.2068 123.601 24.2068 123.511 24.2068C123.149 24.2068 123.149 24.1172 123.149 23.8482Z" fill="#FF0000"/>
<path d="M124.053 23.1311C124.053 24.1173 124.594 24.6552 125.588 24.6552C126.581 24.6552 127.122 24.1173 127.122 23.1311C127.122 22.1449 126.581 21.6069 125.588 21.6069C124.594 21.6966 124.053 22.2345 124.053 23.1311ZM124.594 23.1311C124.594 22.4138 124.956 22.0552 125.588 22.0552C126.22 22.0552 126.581 22.4138 126.581 23.1311C126.581 23.8483 126.22 24.2069 125.588 24.2069C124.956 24.2069 124.594 23.8483 124.594 23.1311Z" fill="#FF0000"/>
<path d="M127.484 23.6689C127.484 24.2965 127.936 24.6552 128.748 24.6552C129.561 24.6552 130.103 24.2965 130.103 23.7586C130.103 23.2207 129.742 23.0414 129.11 22.9517L128.568 22.862C128.207 22.7724 128.026 22.6827 128.026 22.5034C128.026 22.2345 128.207 22.1448 128.658 22.1448C129.11 22.1448 129.38 22.3241 129.38 22.5931H129.922C129.922 22.0552 129.471 21.6965 128.658 21.6965C127.936 21.6965 127.484 22.0552 127.484 22.5034C127.484 22.9517 127.755 23.131 128.387 23.3103L129.019 23.4896C129.38 23.5793 129.471 23.6689 129.471 23.8483C129.471 24.1172 129.2 24.2965 128.748 24.2965C128.207 24.2965 127.936 24.1172 127.936 23.7586H127.484V23.6689Z" fill="#FF0000"/>
<path d="M134.345 23.1311V23.5793C134.345 23.938 133.984 24.2966 133.352 24.2966C132.991 24.2966 132.81 24.1173 132.81 23.8483C132.81 23.5793 132.991 23.4 133.352 23.4C133.713 23.3104 134.074 23.3104 134.345 23.1311ZM134.345 24.2069C134.345 24.4759 134.526 24.6552 134.887 24.6552C134.977 24.6552 135.067 24.6552 135.158 24.6552V24.2069C135.067 24.2069 135.067 24.2069 134.977 24.2069C134.796 24.2069 134.796 24.1173 134.796 23.938V22.5035C134.796 21.8759 134.435 21.6069 133.532 21.6069C132.72 21.6069 132.268 21.9656 132.268 22.5035H132.81C132.81 22.1449 133.081 21.9656 133.532 21.9656C133.984 21.9656 134.255 22.1449 134.255 22.4138C134.255 22.5931 134.255 22.6828 134.074 22.6828C133.984 22.7725 133.623 22.7725 133.171 22.7725C132.449 22.8621 132.088 23.1311 132.088 23.669C132.088 24.2069 132.449 24.4759 133.081 24.4759C133.713 24.6552 134.074 24.4759 134.345 24.2069Z" fill="#FF0000"/>
<path d="M137.866 24.5655H138.408V22.7724C138.408 22.5034 138.408 22.2345 138.227 22.0552C138.047 21.7862 137.686 21.6965 137.234 21.6965C136.783 21.6965 136.421 21.8758 136.241 22.1448V21.6965H135.699V24.4758H136.241V22.8621C136.241 22.3241 136.602 21.9655 137.144 21.9655C137.685 21.9655 137.776 22.2345 137.776 22.6827V24.5655H137.866Z" fill="#FF0000"/>
<path d="M141.928 20.7103H141.387V22.1448C141.116 21.8758 140.754 21.6965 140.393 21.6965C139.581 21.6965 139.039 22.2345 139.039 23.2207C139.039 24.1172 139.581 24.7448 140.393 24.7448C140.845 24.7448 141.116 24.5655 141.387 24.2965V24.6552H141.928V20.7103ZM141.477 23.131C141.477 23.8483 141.116 24.2069 140.574 24.2069C140.032 24.2069 139.581 23.8483 139.581 23.131C139.581 22.4138 139.942 22.0552 140.484 22.0552C141.116 22.0552 141.477 22.4138 141.477 23.131Z" fill="#FF0000"/>
<path d="M148.339 24.5655H148.881V22.7724C148.881 22.5034 148.881 22.2345 148.791 22.0552C148.61 21.7862 148.339 21.6965 147.888 21.6965C147.436 21.6965 147.166 21.8758 146.895 22.1448C146.714 21.8758 146.443 21.6965 145.992 21.6965C145.54 21.6965 145.27 21.8758 144.999 22.1448V21.7862H144.457V24.5655H144.999V22.8621C144.999 22.3241 145.27 22.0552 145.811 22.0552C146.263 22.0552 146.353 22.3241 146.353 22.7724V24.4758H146.895V22.7724C146.895 22.2345 147.166 21.9655 147.707 21.9655C148.159 21.9655 148.249 22.2345 148.249 22.6827V24.5655H148.339Z" fill="#FF0000"/>
<path d="M149.514 23.1311C149.514 24.1173 150.055 24.6552 151.049 24.6552C152.042 24.6552 152.583 24.1173 152.583 23.1311C152.583 22.1449 152.042 21.6069 151.049 21.6069C150.055 21.6966 149.514 22.2345 149.514 23.1311ZM150.055 23.1311C150.055 22.4138 150.417 22.0552 151.049 22.0552C151.681 22.0552 152.042 22.4138 152.042 23.1311C152.042 23.8483 151.681 24.2069 151.049 24.2069C150.417 24.2069 150.055 23.8483 150.055 23.1311Z" fill="#FF0000"/>
<path d="M153.215 24.5656H153.757V22.9518C153.757 22.4138 154.028 22.1449 154.66 22.1449H154.75V21.6069C154.66 21.6069 154.66 21.6069 154.57 21.6069C154.118 21.6069 153.847 21.7862 153.667 22.1449V21.6069H153.125V24.5656H153.215Z" fill="#FF0000"/>
<path d="M157.369 23.6689C157.279 24.0276 157.008 24.2069 156.556 24.2069C156.015 24.2069 155.653 23.8483 155.653 23.3103H157.911C157.911 23.2207 157.911 23.131 157.911 23.131C157.911 22.2345 157.369 21.6965 156.466 21.6965C155.563 21.6965 155.021 22.2345 155.021 23.2207C155.021 24.1172 155.563 24.6552 156.466 24.6552C157.188 24.6552 157.73 24.2965 157.82 23.6689H157.369ZM155.653 22.9517C155.744 22.4138 156.015 22.1448 156.556 22.1448C157.098 22.1448 157.369 22.4138 157.369 22.9517H155.653Z" fill="#FF0000"/>
</svg>
