<svg width="30" height="27" viewBox="0 0 30 27" fill="none" xmlns="http://www.w3.org/2000/svg">
<g clip-path="url(#clip0_444_759)">
<path d="M0.00356197 17.9365C0.00356197 20.4106 -0.00197411 22.8838 0.00633049 25.3579C0.0100212 26.4075 0.722404 27.0873 1.72915 26.9806C2.01521 26.9504 2.33357 26.8207 2.55135 26.6403C3.73158 25.669 4.88966 24.6719 6.04682 23.6739C6.50267 23.2811 6.929 22.8554 7.383 22.4599C7.82224 22.0778 8.06493 22.0778 8.5051 22.451C10.119 23.8223 11.7237 25.2051 13.3423 26.5719C14.2992 27.3797 15.6585 26.9913 15.9574 25.8351C15.9971 25.6796 15.999 25.5126 15.999 25.3508C16.0017 20.448 16.0036 15.5451 15.9999 10.6423C15.999 9.21769 14.9987 8.1655 13.5333 8.02597C13.4115 8.01442 13.2878 8.00287 13.1651 8.00287C9.72039 8.00198 6.27567 7.99309 2.83095 8.00642C1.42648 8.01175 0.396665 8.75025 0.0912256 9.94552C0.0118666 10.2566 0.00817585 10.5916 0.00725269 10.9151C-0.0001297 13.2559 0.00356197 15.5966 0.00356197 17.9365Z" fill="#FF7F00"/>
</g>
<circle cx="22" cy="8" r="8" fill="#FE0101"/>
<path d="M19.9645 4V11H18.9745V4.87H17.3945V4H19.9645ZM24.3556 11.08C23.8023 11.08 23.309 10.94 22.8756 10.66C22.449 10.3733 22.1123 9.96 21.8656 9.42C21.619 8.88 21.4956 8.24 21.4956 7.5C21.4956 6.76 21.619 6.12 21.8656 5.58C22.1123 5.04 22.449 4.63 22.8756 4.35C23.309 4.06333 23.8023 3.92 24.3556 3.92C24.9023 3.92 25.389 4.06333 25.8156 4.35C26.249 4.63 26.589 5.04 26.8356 5.58C27.0823 6.12 27.2056 6.76 27.2056 7.5C27.2056 8.24 27.0823 8.88 26.8356 9.42C26.589 9.96 26.249 10.3733 25.8156 10.66C25.389 10.94 24.9023 11.08 24.3556 11.08ZM24.3556 10.19C24.9156 10.19 25.3623 9.96 25.6956 9.5C26.0356 9.04 26.2056 8.37333 26.2056 7.5C26.2056 6.62667 26.0356 5.96 25.6956 5.5C25.3623 5.04 24.9156 4.81 24.3556 4.81C23.789 4.81 23.3356 5.04 22.9956 5.5C22.6623 5.96 22.4956 6.62667 22.4956 7.5C22.4956 8.37333 22.6623 9.04 22.9956 9.5C23.3356 9.96 23.789 10.19 24.3556 10.19Z" fill="white"/>
<defs>
<clipPath id="clip0_444_759">
<rect width="16" height="19" fill="white" transform="matrix(-1 0 0 1 16 8)"/>
</clipPath>
</defs>
</svg>
