<svg width="16" height="16" viewBox="0 0 16 16" fill="none" xmlns="http://www.w3.org/2000/svg">
<circle cx="8" cy="8" r="8" fill="#FE0101"/>
<path d="M6.42832 5V12H5.43832V5.87H3.85832V5H6.42832ZM12.8795 11.13V12H7.84949V11.32L10.6995 8.57C11.0462 8.23667 11.2795 7.95 11.3995 7.71C11.5195 7.46333 11.5795 7.21667 11.5795 6.97C11.5795 6.60333 11.4495 6.32 11.1895 6.12C10.9362 5.91333 10.5695 5.81 10.0895 5.81C9.31616 5.81 8.71949 6.06333 8.29949 6.57L7.61949 5.98C7.89283 5.64667 8.24949 5.38667 8.68949 5.2C9.13616 5.01333 9.63283 4.92 10.1795 4.92C10.9128 4.92 11.4962 5.09667 11.9295 5.45C12.3628 5.79667 12.5795 6.27 12.5795 6.87C12.5795 7.24333 12.4995 7.59667 12.3395 7.93C12.1795 8.26333 11.8762 8.64333 11.4295 9.07L9.28949 11.13H12.8795Z" fill="white"/>
</svg>
