<svg width="14" height="17" viewBox="0 0 14 17" fill="none" xmlns="http://www.w3.org/2000/svg">
<path d="M0.0033617 8.8905C0.0033617 11.1042 -0.00148296 13.317 0.00578403 15.5307C0.00901318 16.4697 0.632349 17.078 1.51325 16.9826C1.76356 16.9556 2.04212 16.8395 2.23267 16.6781C3.26538 15.809 4.2787 14.9168 5.29121 14.0239C5.69008 13.6724 6.06312 13.2916 6.46037 12.9377C6.84471 12.5958 7.05706 12.5958 7.44221 12.9298C8.8544 14.1567 10.2585 15.3939 11.6747 16.6168C12.5121 17.3396 13.7014 16.9921 13.963 15.9577C13.9977 15.8185 13.9993 15.669 13.9993 15.5243C14.0018 11.1376 14.0034 6.75079 14.0001 2.36403C13.9993 1.08943 13.1241 0.147986 11.8419 0.0231498C11.7353 0.0128131 11.6271 0.00247633 11.5197 0.00247633C8.50559 0.00168119 5.49146 -0.00627017 2.47732 0.00565687C1.24842 0.0104277 0.347326 0.671185 0.0800676 1.74064C0.0106287 2.01894 0.00739861 2.31871 0.00659084 2.60814C0.000131607 4.70252 0.0033617 6.79691 0.0033617 8.8905Z" fill="#FF7F00"/>
</svg>
