<svg width="22" height="22" viewBox="0 0 22 22" fill="none" xmlns="http://www.w3.org/2000/svg">
<circle cx="11" cy="11" r="11" fill="#55ACE3"/>
<path d="M16.8308 8.19496C16.4458 8.35996 16.0058 8.46996 15.5658 8.52496C16.0058 8.24996 16.3908 7.80997 16.5558 7.31497C16.1158 7.58997 15.6758 7.75497 15.1258 7.86497C14.7408 7.42497 14.1358 7.14996 13.5308 7.14996C12.3208 7.14996 11.3308 8.13996 11.3308 9.34996C11.3308 9.51496 11.3308 9.67996 11.3858 9.84496C9.57078 9.73496 7.92078 8.85496 6.82078 7.53496C6.65578 7.86496 6.54578 8.24996 6.54578 8.63496C6.54578 9.40496 6.93078 10.065 7.53578 10.45C7.15078 10.45 6.82078 10.34 6.54578 10.175C6.54578 11.22 7.31578 12.155 8.30578 12.32C8.14078 12.375 7.92078 12.375 7.70078 12.375C7.53578 12.375 7.42578 12.375 7.26078 12.32C7.53578 13.2 8.36078 13.86 9.35078 13.86C8.58078 14.465 7.64578 14.795 6.60078 14.795C6.43578 14.795 6.27078 14.795 6.05078 14.74C7.04078 15.345 8.19578 15.73 9.46078 15.73C13.5308 15.73 15.7308 12.375 15.7308 9.45996V9.18496C16.1708 9.01996 16.5558 8.63496 16.8308 8.19496Z" fill="white"/>
</svg>
