<svg width="22" height="22" viewBox="0 0 22 22" fill="none" xmlns="http://www.w3.org/2000/svg">
<circle cx="11" cy="11" r="11" fill="url(#paint0_linear_444_607)"/>
<path d="M14.619 6.60004H7.93019C7.17499 6.60004 6.59961 7.17542 6.59961 7.93061V14.6195C6.59961 15.3747 7.17499 15.95 7.93019 15.95H14.619C15.3742 15.95 15.9496 15.3747 15.9496 14.6195V7.93061C15.9496 7.17542 15.3742 6.60004 14.619 6.60004ZM11.2746 14.08C12.821 14.08 14.0796 12.8573 14.0796 11.3829C14.0796 11.1312 14.0436 10.8435 13.9717 10.6277H14.7629V14.4397C14.7629 14.6195 14.619 14.7993 14.4033 14.7993H8.14596C7.96615 14.7993 7.78634 14.6554 7.78634 14.4397V10.5918H8.61346C8.54153 10.8435 8.50557 11.0952 8.50557 11.347C8.46961 12.8573 9.72826 14.08 11.2746 14.08ZM11.2746 13.0012C10.2677 13.0012 9.47653 12.21 9.47653 11.2391C9.47653 10.2681 10.2677 9.47696 11.2746 9.47696C12.2815 9.47696 13.0727 10.2681 13.0727 11.2391C13.0727 12.246 12.2815 13.0012 11.2746 13.0012ZM14.7269 9.15331C14.7269 9.36907 14.5471 9.54888 14.3313 9.54888H13.3244C13.1086 9.54888 12.9288 9.36907 12.9288 9.15331V8.18234C12.9288 7.96657 13.1086 7.78677 13.3244 7.78677H14.3313C14.5471 7.78677 14.7269 7.96657 14.7269 8.18234V9.15331Z" fill="white"/>
<defs>
<linearGradient id="paint0_linear_444_607" x1="4.675" y1="19.525" x2="19.25" y2="4.4" gradientUnits="userSpaceOnUse">
<stop stop-color="#EEA054"/>
<stop offset="0.502762" stop-color="#D64763"/>
<stop offset="1" stop-color="#B62A99"/>
</linearGradient>
</defs>
</svg>
