<svg width="22" height="22" viewBox="0 0 22 22" fill="none" xmlns="http://www.w3.org/2000/svg">
<circle cx="11" cy="11" r="11" fill="#BE1326"/>
<path d="M14.3033 7.10318C13.6012 6.40106 12.5919 6.04999 11.4948 6.04999C9.82725 6.04999 8.81795 6.75212 8.24747 7.3226C7.54534 8.02473 7.15039 8.94627 7.15039 9.91169C7.15039 11.0965 7.6331 11.9742 8.46688 12.3253C8.51076 12.3691 8.59853 12.3691 8.64241 12.3691C8.81794 12.3691 8.9496 12.2375 8.99348 12.062C9.03737 11.9742 9.08124 11.7109 9.12513 11.5792C9.16901 11.3598 9.12513 11.2721 8.99348 11.0965C8.77407 10.8332 8.64241 10.4822 8.64241 10.0433C8.64241 8.77074 9.60784 7.41036 11.3632 7.41036C12.7674 7.41036 13.6451 8.20026 13.6451 9.47286C13.6451 10.2628 13.4696 11.0088 13.1624 11.5792C12.943 11.9742 12.548 12.413 11.9775 12.413C11.7142 12.413 11.4948 12.3253 11.3632 12.1058C11.2315 11.9303 11.1876 11.7109 11.2315 11.4915C11.2754 11.2282 11.3632 10.9649 11.4509 10.7016C11.5826 10.2189 11.7581 9.73616 11.7581 9.3851C11.7581 8.77074 11.3632 8.3319 10.7927 8.3319C10.0467 8.3319 9.47619 9.07792 9.47619 9.99946C9.47619 10.4822 9.60784 10.7894 9.65173 10.921C9.56396 11.316 8.99348 13.6417 8.90571 14.0367C8.86183 14.3 8.46688 16.3186 9.08124 16.4503C9.73949 16.6258 10.3538 14.6511 10.3977 14.4316C10.4416 14.2561 10.6172 13.554 10.7049 13.159C11.0121 13.4662 11.5387 13.6856 12.0653 13.6856C13.0307 13.6856 13.8645 13.2468 14.4789 12.4569C15.0493 11.7109 15.4004 10.6577 15.4004 9.47286C15.3565 8.68297 15.0054 7.76143 14.3033 7.10318Z" fill="white"/>
</svg>
