<svg width="22" height="22" viewBox="0 0 22 22" fill="none" xmlns="http://www.w3.org/2000/svg">
<circle cx="11" cy="11" r="11" fill="#4E6297"/>
<path d="M15.9496 7.60025C15.9496 6.77667 15.2229 6.04999 14.3994 6.04999H8.14987C7.32629 6.04999 6.59961 6.77667 6.59961 7.60025V13.8497C6.59961 14.6733 7.32629 15.4 8.14987 15.4H11.2988V11.8635H10.1361V10.3132H11.2988V9.68341C11.2988 8.6176 12.074 7.69713 13.0429 7.69713H14.3025V9.24739H13.0429C12.8975 9.24739 12.7522 9.39273 12.7522 9.68341V10.3132H14.3025V11.8635H12.7522V15.4H14.3994C15.2229 15.4 15.9496 14.6733 15.9496 13.8497V7.60025Z" fill="white"/>
</svg>
