<svg width="14" height="14" viewBox="0 0 14 14" fill="none" xmlns="http://www.w3.org/2000/svg">
<path d="M3.00887 12.9987C3.00887 12.8797 3.00887 12.7897 3.00887 12.6997C3.00887 11.6246 3.00687 10.5505 3.00987 9.47545C3.01087 8.70939 3.5119 8.20135 4.27296 8.20035C6.0971 8.19735 7.92224 8.19735 9.74638 8.20035C10.5024 8.20135 11.0075 8.71539 11.0095 9.47945C11.0115 10.5545 11.0095 11.6296 11.0095 12.7037C11.0095 12.7937 11.0095 12.8827 11.0095 12.9887C11.3475 12.9887 11.6645 13.0177 11.9746 12.9827C12.5666 12.9167 12.9996 12.4047 13.0046 11.7886C13.0126 10.9476 13.0066 10.1055 13.0066 9.26444C13.0066 6.96526 13.0066 4.66509 13.0066 2.36591C13.0066 1.48484 12.5276 1.00381 11.6515 1.00281C10.9935 1.00181 10.3354 1.00281 9.67738 1.00281C9.59637 1.00281 9.51536 1.00981 9.40935 1.01381C9.40935 1.11781 9.40935 1.20682 9.40935 1.29683C9.40935 2.2379 9.41136 3.17997 9.40835 4.12104C9.40735 4.68109 9.08433 5.00011 8.52029 5.00011C7.51221 5.00211 6.50413 5.00211 5.49606 5.00011C4.91801 4.99911 4.60999 4.68509 4.60899 4.09804C4.60799 3.16497 4.60899 2.2319 4.60899 1.29883C4.60899 1.20982 4.60899 1.11982 4.60899 1.00481C4.31297 1.00481 4.03895 0.989805 3.76892 1.01281C3.66592 1.02181 3.55191 1.09881 3.4729 1.17682C2.70284 1.93788 1.93478 2.70194 1.17773 3.47699C1.08472 3.572 1.01771 3.73901 1.01771 3.87202C1.00871 6.51323 1.00871 9.15443 1.01271 11.7956C1.01371 12.4807 1.53175 12.9867 2.22081 12.9977C2.46983 13.0017 2.71984 12.9987 3.00887 12.9987Z" fill="#A4B748"/>
<path d="M3.81008 12.9919C5.95324 12.9919 8.0594 12.9919 10.2076 12.9919C10.2076 12.9099 10.2076 12.8319 10.2076 12.7529C10.2076 11.6788 10.2086 10.6037 10.2076 9.52964C10.2076 9.13861 10.0726 9.0016 9.68352 9.0016C7.90139 9.0006 6.11825 9.0006 4.33612 9.0016C3.94209 9.0016 3.81008 9.13261 3.81008 9.52364C3.80908 10.5977 3.81008 11.6728 3.81008 12.7469C3.81008 12.8199 3.81008 12.8939 3.81008 12.9919Z" fill="#A4B748"/>
<path d="M5.43097 4.1858C6.49205 4.1858 7.53713 4.1858 8.59521 4.1858C8.59521 3.12672 8.59521 2.08164 8.59521 1.01855C7.54313 1.01855 6.49706 1.01855 5.43097 1.01855C5.43097 2.06463 5.43097 3.11571 5.43097 4.1858Z" fill="#A4B748"/>
</svg>
