<svg width="10" height="12" viewBox="0 0 10 12" fill="none" xmlns="http://www.w3.org/2000/svg">
<path d="M5.18818 3.62914C4.12936 3.62914 3.06945 3.62806 2.01063 3.62914C1.47421 3.62914 1.25986 3.86396 1.29649 4.39283C1.4559 6.71298 1.61424 9.03314 1.76935 11.3533C1.79951 11.8035 1.9977 11.9996 2.44902 11.9996C4.28016 12.0007 6.11129 12.0007 7.94242 11.9996C8.38297 11.9996 8.58117 11.8046 8.61025 11.3716C8.76536 9.06976 8.92262 6.76792 9.08203 4.465C9.12512 3.83918 8.93662 3.62914 8.31188 3.62914C7.27029 3.62914 6.2287 3.62914 5.18818 3.62914Z" fill="#858585"/>
<path d="M0.736695 0.995275C0.736695 1.54354 0.736695 2.04118 0.736695 2.55928C3.68805 2.55928 6.6254 2.55928 9.57568 2.55928C9.57568 2.04441 9.57568 1.54569 9.57568 1.01035C8.90355 1.01035 8.2368 1.01035 7.5442 1.01035C7.5442 0.655977 7.5442 0.337144 7.5442 0C5.95219 0 4.38711 0 2.79618 0C2.79618 0.32745 2.79618 0.645205 2.79618 0.995275C2.10251 0.995275 1.43468 0.995275 0.736695 0.995275Z" fill="#858585"/>
</svg>
