<svg width="14" height="14" viewBox="0 0 14 14" fill="none" xmlns="http://www.w3.org/2000/svg">
<path d="M13 7.0107C13.0012 10.3176 10.3227 12.9964 7.01126 13C3.68089 13.0024 1.00356 10.3319 1 7.00357C0.996448 3.69072 3.6726 1.00119 6.97334 1C10.3274 0.998811 12.9988 3.66217 13 7.0107ZM6.98519 6.16257C6.40089 5.56899 5.85097 5.00159 5.28919 4.44845C5.19437 4.35448 4.98104 4.23553 4.92297 4.27597C4.68593 4.43656 4.44297 4.62569 4.28652 4.86122C4.14549 5.07296 4.37897 5.23116 4.52356 5.37629C5.05926 5.91158 5.59497 6.44687 6.16149 7.01189C5.6483 7.51863 5.15645 8.00039 4.66815 8.48691C4.11349 9.03886 4.11467 9.06859 4.67882 9.59437C4.89926 9.80016 5.0486 9.80372 5.26193 9.59318C5.67674 9.18398 6.09037 8.77478 6.49571 8.35606C6.65808 8.18834 6.79556 7.99564 6.95793 7.79698C7.592 8.43457 8.14312 8.9996 8.70845 9.55035C8.80445 9.64314 9.01541 9.76328 9.07467 9.72284C9.31171 9.56225 9.55349 9.37311 9.71112 9.13878C9.85452 8.92585 9.62104 8.76764 9.47645 8.62371C8.94074 8.08842 8.40267 7.55551 7.85749 7.01308C7.95112 6.91435 8.01512 6.84179 8.08386 6.7728C8.58519 6.26844 9.08889 5.76764 9.58786 5.26209C9.80119 5.04679 9.79882 4.89572 9.59734 4.67803C9.52978 4.60547 9.45867 4.53767 9.38875 4.46868C9.08889 4.17248 8.97867 4.17248 8.67763 4.47224C8.12415 5.02062 7.57423 5.57137 6.98519 6.16257Z" fill="#FE0101"/>
</svg>
