<svg width="14" height="14" viewBox="0 0 14 14" fill="none" xmlns="http://www.w3.org/2000/svg">
<path d="M1.29284 12.9993C1.06708 13.0068 0.957509 12.8481 1.01607 12.6113C1.20121 11.8607 1.40997 11.1147 1.56771 10.3584C1.66973 9.87085 1.90115 9.50069 2.25537 9.1512C4.26261 7.17078 6.25096 5.17156 8.23931 3.17234C8.381 3.02954 8.4509 3.04175 8.58408 3.17704C9.33125 3.93614 10.086 4.68867 10.8435 5.43649C10.9559 5.54735 10.971 5.60842 10.8492 5.72867C8.71821 7.85096 6.59196 9.97795 4.4657 12.1059C4.38068 12.1914 4.29095 12.2581 4.17193 12.2881C3.23679 12.5192 2.3026 12.7522 1.3684 12.9843C1.33818 12.9909 1.30701 12.9965 1.29284 12.9993Z" fill="#645548"/>
<path d="M13 3.0325C13.0038 3.37823 12.881 3.67698 12.6448 3.92406C12.3794 4.20121 12.1008 4.46521 11.8353 4.74141C11.7494 4.83066 11.6974 4.82878 11.6105 4.74141C10.8275 3.95225 10.0416 3.16684 9.25189 2.38425C9.16121 2.29406 9.17443 2.23863 9.2585 2.15784C9.53432 1.89103 9.79597 1.60918 10.0765 1.34894C10.5734 0.887659 11.3517 0.883901 11.8523 1.34425C12.1348 1.60354 12.403 1.87881 12.6656 2.15784C12.8951 2.40022 13.0066 2.69616 13 3.0325Z" fill="#645548"/>
</svg>
