<svg width="16" height="20" viewBox="0 0 16 20" fill="none" xmlns="http://www.w3.org/2000/svg">
<g clip-path="url(#clip0_0_1890)">
<path d="M1.58362 6.71479C1.61343 2.76644 4.70611 -0.238839 8.4695 0.0155144C11.9758 0.254215 14.6661 3.4395 14.4574 7.12567C14.368 8.7144 13.7532 10.0996 12.8067 11.3049C11.9087 12.4475 10.9288 13.5197 10.0084 14.6428C9.55753 15.1945 9.13648 15.7737 8.73033 16.3646C8.26829 17.0337 7.76154 17.0181 7.27714 16.3724C6.42386 15.2454 5.53331 14.1419 4.63159 13.0541C3.75968 12.0053 2.85795 10.984 2.2655 9.72007C1.81836 8.7731 1.57244 7.77525 1.58362 6.71479ZM7.97766 14.7132C8.45833 14.138 8.90174 13.6019 9.3526 13.0697C10.1015 12.1853 10.8729 11.3205 11.592 10.4127C12.367 9.43833 12.9222 8.33091 12.9707 7.03175C13.0489 5.02041 12.2702 3.42776 10.6456 2.37122C8.97626 1.28337 7.2138 1.24815 5.50351 2.26556C2.95483 3.78386 2.23942 7.21567 4.03541 9.79051C5.23895 11.5123 6.65115 13.0697 7.97766 14.7132Z" fill="#FF8000"/>
<path d="M1.50158 17.1041C2.19836 17.648 2.92868 17.8476 3.66646 17.9963C6.80759 18.6263 9.94126 18.6341 13.0526 17.8045C13.5332 17.6754 13.9878 17.4249 14.4536 17.2332C14.4536 17.1862 14.4536 17.1393 14.4536 17.0923C14.2449 16.971 14.0475 16.8145 13.8239 16.7362C13.3097 16.5523 12.788 16.3997 12.2626 16.251C11.7745 16.114 11.4951 15.7384 11.5919 15.304C11.6925 14.8423 12.0987 14.5957 12.6054 14.7484C13.3171 14.9636 14.0288 15.1827 14.7107 15.4684C15.0423 15.6092 15.3516 15.8714 15.605 16.1453C16.1527 16.7401 16.1229 17.5854 15.5677 18.1763C14.9343 18.8493 14.1071 19.1389 13.2687 19.3698C11.0666 19.9685 8.82342 20.0819 6.56166 19.9528C5.10102 19.8706 3.65528 19.6906 2.25426 19.2171C1.61709 19.0019 0.99855 18.7397 0.502974 18.235C-0.145372 17.5775 -0.18636 16.6384 0.510427 16.0475C0.99855 15.6327 1.60591 15.3588 2.18719 15.0888C2.57843 14.9088 3.01811 14.8384 3.43544 14.7327C3.91611 14.6114 4.31481 14.8501 4.41914 15.3001C4.51974 15.7345 4.24028 16.1179 3.75589 16.251C3.24168 16.3958 2.7312 16.5445 2.22817 16.7206C1.99715 16.8027 1.78849 16.9514 1.50158 17.1041Z" fill="#FF8000"/>
<path d="M7.97006 3.09119C10.0641 3.14597 11.5919 4.86775 11.4912 6.97692C11.4838 7.13345 11.4614 7.28997 11.4242 7.43867C11.3236 7.81825 11.0106 8.02955 10.6342 7.98651C10.2691 7.94738 10.012 7.65389 9.99335 7.25476C9.97844 6.93388 10.0157 6.59735 9.94863 6.28821C9.71016 5.16123 8.72273 4.496 7.62353 4.68774C6.63238 4.85992 5.8797 5.93994 6.00639 7.00823C6.14053 8.11564 7.05716 8.90609 8.13401 8.85522C8.27933 8.8474 8.43582 8.8474 8.57369 8.88653C8.91649 8.98436 9.13634 9.31697 9.11398 9.67307C9.09162 10.0526 8.82334 10.3461 8.45073 10.3931C6.52805 10.6474 4.86247 9.29741 4.53829 7.21954C4.25138 5.38819 5.54062 3.52163 7.35525 3.14988C7.58254 3.10293 7.82101 3.10684 7.97006 3.09119Z" fill="#FF8000"/>
</g>
<defs>
<clipPath id="clip0_0_1890">
<rect width="16" height="20" fill="white"/>
</clipPath>
</defs>
</svg>
