<svg width="16" height="20" viewBox="0 0 16 20" fill="none" xmlns="http://www.w3.org/2000/svg">
<g clip-path="url(#clip0_0_1898)">
<path d="M0.00400515 10.7376C0.00400515 8.74971 0.00400515 6.76575 0.00400515 4.77789C0.00400515 2.9935 1.20282 1.69043 2.98323 1.54564C3.22062 1.52608 3.35119 1.45173 3.46592 1.24042C4.00005 0.262135 5.07226 -0.191787 6.14842 0.0782184C7.18501 0.340398 7.91696 1.26781 7.92092 2.35175C7.92883 4.16744 7.92883 5.98313 7.92092 7.79882C7.91301 9.10581 6.86058 10.1389 5.55495 10.1428C4.25326 10.1467 3.18897 9.10972 3.17315 7.81056C3.16523 7.05141 3.16919 6.29618 3.17315 5.53703C3.1771 5.00485 3.50153 4.66049 3.97631 4.66832C4.43526 4.67614 4.74782 5.01267 4.75178 5.52529C4.75574 6.24531 4.75178 6.96141 4.75574 7.68143C4.75969 8.22535 5.06434 8.56579 5.53516 8.57362C6.02577 8.58145 6.33833 8.22927 6.33833 7.66577C6.34228 5.92835 6.34228 4.19092 6.33833 2.45349C6.33833 1.93304 6.04159 1.58869 5.59055 1.56521C5.13556 1.54173 4.84674 1.83521 4.77948 2.37522C4.72408 2.85263 4.33239 3.16176 3.84179 3.12655C3.62023 3.11089 3.39471 3.08741 3.17315 3.09915C2.20381 3.14611 1.5866 3.78395 1.5866 4.74267C1.58264 6.78141 1.5866 8.82015 1.5866 10.8589C1.5866 12.8037 1.5866 14.7524 1.5866 16.6973C1.5866 17.7851 2.23546 18.423 3.3314 18.423C6.44515 18.423 9.56286 18.423 12.6766 18.423C13.7092 18.423 14.3304 17.8595 14.4175 16.846C14.457 16.3686 14.7973 16.0516 15.2404 16.0712C15.6796 16.0907 15.9921 16.439 15.9961 16.9125C16.0159 18.4856 14.6153 19.9608 12.9931 19.9765C9.66573 20.0078 6.33833 20.0039 3.01489 19.9765C1.36899 19.9647 0.0119181 18.5404 0.00400515 16.889C-0.00390781 14.8385 0.00400515 12.7881 0.00400515 10.7376Z" fill="#858585"/>
<path d="M16 8.69084C16 10.0878 16.004 11.4848 15.9961 12.8818C15.9921 13.3475 15.6914 13.6762 15.272 13.7153C14.8843 13.7505 14.5084 13.4727 14.4333 13.0892C14.4095 12.964 14.4174 12.8309 14.4174 12.6979C14.4174 10.0878 14.4174 7.47386 14.4174 4.8638C14.4174 3.72117 13.7923 3.10289 12.6331 3.09507C11.8299 3.08724 11.0228 3.10681 10.2196 3.08724C9.56284 3.07159 9.16719 2.45723 9.50745 1.95635C9.64592 1.75286 9.96244 1.56112 10.2038 1.55329C11.1652 1.51416 12.1306 1.50242 13.092 1.56112C14.7419 1.66286 15.9802 3.0168 16 4.65641C16 4.6838 16 4.70728 16 4.73467C16 6.05339 16 7.37212 16 8.69084Z" fill="#858585"/>
<path d="M7.96435 13.285C6.65871 13.285 5.34912 13.2889 4.04348 13.2811C3.4777 13.2772 3.14536 12.9837 3.1414 12.5102C3.13745 12.115 3.39462 11.8058 3.78631 11.7432C3.92874 11.7197 4.07513 11.7197 4.22152 11.7197C6.71806 11.7197 9.21064 11.7197 11.7072 11.7197C11.7744 11.7197 11.8377 11.7197 11.905 11.7197C12.4629 11.7393 12.7952 12.0367 12.7873 12.5102C12.7833 12.9837 12.451 13.2654 11.8852 13.2811C11.6755 13.285 11.4619 13.2811 11.2522 13.2811C10.1523 13.285 9.0603 13.285 7.96435 13.285Z" fill="#858585"/>
<path d="M6.79332 16.4626C5.88333 16.4626 4.97334 16.4665 4.05939 16.4626C3.4857 16.4626 3.13358 16.1535 3.14149 15.6682C3.1494 15.1987 3.49361 14.8973 4.04357 14.8973C5.86355 14.8934 7.68748 14.8934 9.50746 14.8973C10.0574 14.8973 10.4016 15.2026 10.4056 15.6721C10.4095 16.1574 10.0574 16.4626 9.48372 16.4626C8.58956 16.4626 7.69144 16.4626 6.79332 16.4626Z" fill="#858585"/>
</g>
<defs>
<clipPath id="clip0_0_1898">
<rect width="16" height="20" fill="white"/>
</clipPath>
</defs>
</svg>
