<svg width="20" height="20" viewBox="0 0 20 20" fill="none" xmlns="http://www.w3.org/2000/svg">
<g clip-path="url(#clip0_0_1908)">
<path d="M10.0139 20C7.75433 20 5.49085 20.0039 3.23132 20C1.56433 19.996 0.316055 18.9417 0.0316389 17.3092C0.00793753 17.1951 3.70769e-05 17.0771 3.70769e-05 16.963C-0.00391315 16.4634 0.308155 16.1093 0.758481 16.0975C1.19696 16.0857 1.51692 16.4004 1.56433 16.8843C1.64333 17.6986 2.06996 18.2258 2.80075 18.3949C2.96271 18.4343 3.13652 18.4382 3.30638 18.4382C7.78989 18.4421 12.2734 18.4421 16.7569 18.4382C17.8077 18.4382 18.3409 17.9465 18.4358 16.904C18.4832 16.3965 18.811 16.0739 19.2574 16.0975C19.7077 16.1211 20.004 16.4752 20 16.9827C19.9842 18.5641 18.5819 19.9842 16.9939 19.996C14.6672 20.0078 12.3405 19.996 10.0139 20Z" fill="#858585"/>
<path d="M9.97443 15.0237C9.34634 15.0276 8.78541 14.7995 8.33508 14.3431C6.9288 12.9309 5.52647 11.5107 4.12414 10.0866C3.76072 9.71686 3.74887 9.26446 4.06884 8.94188C4.39276 8.61536 4.87468 8.63897 5.24996 9.01269C6.57328 10.3423 7.89266 11.6799 9.21598 13.0174C9.82432 13.6311 10.1719 13.6311 10.7921 13.0135C12.1352 11.6799 13.4743 10.3463 14.8214 9.01662C15.165 8.67831 15.5877 8.62323 15.9156 8.85927C16.3224 9.15824 16.3501 9.68145 15.959 10.0788C15.2914 10.7554 14.608 11.4242 13.9326 12.0929C13.1939 12.8286 12.4512 13.5642 11.7125 14.2999C11.2345 14.7759 10.6697 15.0316 9.97443 15.0237Z" fill="#858585"/>
<path d="M10.8236 5.56253C10.8236 7.12429 10.8276 8.68605 10.8236 10.2517C10.8236 10.8654 10.3891 11.2313 9.84001 11.0975C9.47264 11.0071 9.25932 10.7041 9.25932 10.236C9.25537 8.59557 9.25932 6.95513 9.25932 5.31469C9.25932 3.85521 9.25932 2.39966 9.25932 0.940182C9.25932 0.365831 9.55559 0.0117791 10.0296 0.00391123C10.5234 -0.00395659 10.8236 0.354029 10.8236 0.955917C10.8236 2.48621 10.8236 4.02437 10.8236 5.56253Z" fill="#858585"/>
</g>
<defs>
<clipPath id="clip0_0_1908">
<rect width="20" height="20" fill="white"/>
</clipPath>
</defs>
</svg>
