<svg width="21" height="21" viewBox="0 0 21 21" fill="none" xmlns="http://www.w3.org/2000/svg">
<g clip-path="url(#clip0_0_1876)">
<path d="M0.665833 10.4785C0.665833 8.24408 0.665833 6.00969 0.665833 3.77529C0.665833 1.84612 2.01248 0.5 3.93849 0.5C8.42078 0.5 12.9031 0.5 17.3854 0.5C19.3153 0.5 20.658 1.84612 20.658 3.7792C20.658 6.27578 20.658 8.76844 20.658 11.265C20.658 11.7346 20.4662 12.032 20.0943 12.1455C19.5971 12.302 19.1 11.9185 19.0961 11.355C19.0843 10.3885 19.0921 9.42193 19.0921 8.45539C19.0921 6.88623 19.0921 5.32097 19.0921 3.75181C19.0921 2.71874 18.4384 2.06525 17.4049 2.06525C12.9109 2.06525 8.41686 2.06525 3.91892 2.06525C2.88545 2.06525 2.2317 2.71874 2.2317 3.75181C2.2317 8.24408 2.2317 12.7403 2.2317 17.2325C2.2317 18.2656 2.88545 18.9191 3.91892 18.9191C6.53391 18.923 9.14499 18.9191 11.76 18.923C12.4568 18.923 12.8991 19.5295 12.5507 20.0539C12.4176 20.2613 12.1006 20.4648 11.8657 20.4687C9.10976 20.4961 6.34992 20.5157 3.594 20.4726C1.98116 20.4491 0.673663 19.0169 0.665833 17.3734C0.658004 15.0764 0.665833 12.7794 0.665833 10.4785Z" fill="white"/>
<path d="M19.1501 17.8937C19.5533 18.2889 19.9839 18.692 20.391 19.1146C20.8021 19.5411 20.7394 20.1085 20.2697 20.3825C19.9408 20.5742 19.5964 20.5233 19.2754 20.2103C18.9191 19.8659 18.5629 19.5177 18.2223 19.1537C18.0618 18.9816 17.9365 18.9581 17.7252 19.0716C16.2102 19.8777 14.1746 19.2868 13.235 17.6981C12.3151 16.1446 12.6792 14.1176 14.1785 13.0923C15.1336 12.4388 16.2258 12.2823 17.3846 12.6462C19.7138 13.3819 20.2579 16.1524 19.2049 17.7294C19.1853 17.7646 19.1775 17.8076 19.1501 17.8937ZM16.2572 17.8585C17.365 17.9133 18.1479 16.7941 18.1597 15.9254C18.1714 15.045 17.3885 13.9336 16.3002 13.9454C15.2198 13.9571 14.3194 14.8063 14.3116 15.8863C14.2998 16.9702 15.1689 17.8507 16.2572 17.8585Z" fill="white"/>
<path d="M12.6519 4.93355C13.7754 4.93355 14.895 4.92181 16.0185 4.93746C16.5039 4.94529 16.8249 5.28182 16.8171 5.72009C16.8131 6.15444 16.4882 6.45967 15.9989 6.49097C15.8814 6.4988 15.764 6.49489 15.6466 6.49489C14.1707 6.49489 12.6988 6.49489 11.223 6.49489C10.6475 6.49489 10.076 6.4988 9.50055 6.49489C8.86246 6.49097 8.4984 6.2014 8.50623 5.70443C8.51014 5.21138 8.87029 4.93355 9.52012 4.93355C10.5653 4.92963 11.6066 4.92963 12.6519 4.93355Z" fill="white"/>
<path d="M12.6518 9.63709C13.7754 9.63709 14.8949 9.62535 16.0185 9.641C16.5039 9.64883 16.8249 9.98536 16.821 10.4236C16.817 10.858 16.4921 11.1632 16.0028 11.1945C15.8854 11.2023 15.7679 11.1984 15.6505 11.1984C13.9946 11.1984 12.3387 11.1984 10.6789 11.1984C10.26 11.1984 9.84504 11.2023 9.42617 11.1984C8.85071 11.1906 8.50231 10.8854 8.51014 10.408C8.51405 9.93448 8.86246 9.641 9.44574 9.63709C10.5105 9.62926 11.5792 9.63317 12.6518 9.63709Z" fill="white"/>
<path d="M9.81777 16.0976C9.62203 16.0976 9.4263 16.1094 9.23057 16.0937C8.81561 16.0585 8.50636 15.718 8.50244 15.315C8.50244 14.9119 8.8117 14.5598 9.22665 14.5402C9.62986 14.5206 10.0331 14.5206 10.4363 14.5402C10.8512 14.5637 11.1605 14.9119 11.1605 15.315C11.1605 15.718 10.8473 16.0585 10.4363 16.0937C10.2366 16.1094 10.0292 16.0976 9.81777 16.0976Z" fill="white"/>
<path d="M5.73077 16.0978C5.60159 16.0978 5.46849 16.1056 5.3393 16.0978C4.90086 16.0665 4.57986 15.726 4.58378 15.3073C4.58769 14.8847 4.91261 14.556 5.35888 14.5364C5.6329 14.5247 5.90693 14.5208 6.17704 14.5364C6.61548 14.5599 6.93649 14.9043 6.93257 15.323C6.92866 15.7417 6.60374 16.0704 6.15747 16.0939C6.01654 16.1056 5.87561 16.0978 5.73077 16.0978Z" fill="white"/>
<path d="M5.74643 6.47932C5.58985 6.47932 5.43326 6.49497 5.28059 6.47541C4.86955 6.42453 4.5877 6.11148 4.58378 5.71626C4.57987 5.32495 4.85781 4.98842 5.26493 4.94929C5.58593 4.91798 5.91476 4.91798 6.23577 4.94537C6.64681 4.98059 6.92866 5.30929 6.93258 5.70061C6.93649 6.09192 6.65855 6.41671 6.25143 6.47149C6.08309 6.49497 5.91476 6.49106 5.74643 6.49888C5.74643 6.49497 5.74643 6.48714 5.74643 6.47932Z" fill="white"/>
<path d="M5.76218 11.2104C5.58211 11.1987 5.39812 11.2026 5.21804 11.1713C4.83832 11.1048 4.57604 10.78 4.58778 10.4004C4.59561 10.0365 4.85006 9.71168 5.21804 9.66864C5.55079 9.62951 5.89136 9.62951 6.22802 9.65299C6.65864 9.68429 6.94832 10.0286 6.93658 10.4356C6.92875 10.8269 6.64298 11.1361 6.23194 11.183C6.07927 11.2026 5.92268 11.1869 5.76609 11.1869C5.76218 11.1948 5.76218 11.2026 5.76218 11.2104Z" fill="white"/>
</g>
<defs>
<clipPath id="clip0_0_1876">
<rect width="20" height="20" fill="white" transform="translate(0.661133 0.5)"/>
</clipPath>
</defs>
</svg>
