<svg width="9" height="9" viewBox="0 0 9 9" fill="none" xmlns="http://www.w3.org/2000/svg">
<path d="M5.24279 5.31025C5.24279 6.27271 5.24443 7.18206 5.24197 8.09224C5.24032 8.64814 4.95675 8.99412 4.50878 8.99993C4.06163 9.00574 3.76161 8.65394 3.75997 8.108C3.75668 7.18703 3.75914 6.26524 3.75914 5.29034C3.22405 5.29034 2.72347 5.29034 2.22289 5.29034C1.73053 5.29034 1.23818 5.29947 0.746643 5.28536C0.324152 5.27375 0.0118055 4.95763 0.000297998 4.55938C-0.0112095 4.1495 0.311823 3.80352 0.750753 3.79688C1.58423 3.78444 2.41852 3.79273 3.25199 3.7919C3.40077 3.7919 3.54872 3.7919 3.75832 3.7919C3.75832 3.275 3.75832 2.78465 3.75832 2.29346C3.75832 1.82468 3.75586 1.3559 3.75914 0.887123C3.76325 0.343669 4.06574 -0.00895366 4.51289 0.00017304C4.94853 0.00929974 5.23868 0.349477 5.24115 0.871358C5.24526 1.82219 5.24197 2.77303 5.24197 3.79273C5.40554 3.79273 5.54856 3.79273 5.69158 3.79273C6.52506 3.79273 7.35935 3.78775 8.19282 3.79522C8.66874 3.79937 9.00164 4.11797 8.99999 4.54361C8.99835 4.97008 8.66628 5.2837 8.18789 5.28785C7.35442 5.29449 6.52013 5.28951 5.68665 5.29117C5.55432 5.29117 5.42116 5.30196 5.24279 5.31025Z" fill="white"/>
</svg>
